# MagicaVoxel @ Ephtracy

# group
o 

# material
mtllib busstop.mtl
usemtl palette

# normals
vn -1 0 0
vn 1 0 0
vn 0 0 1
vn 0 0 -1
vn 0 -1 0
vn 0 1 0

# texcoords
vt 0.224609 0.5
vt 0.369141 0.5
vt 0.716797 0.5
vt 0.966797 0.5

# verts
v -0.5 0 0.3
v -0.5 0 -0.5
v -0.5 0.8 0.3
v -0.5 0.8 -0.5
v -0.5 0.9 0.3
v -0.5 0.9 -0.5
v 0.4 0 0.3
v 0.4 0 -0.4
v 0.4 0.1 -0.2
v 0.4 0.1 -0.4
v 0.4 0.2 -0.2
v 0.4 0.2 -0.4
v 0.4 0.8 0.3
v 0.4 0.8 -0.4
v -0.4 0 0.3
v -0.4 0 -0.4
v -0.4 0.1 -0.2
v -0.4 0.1 -0.4
v -0.4 0.2 -0.2
v -0.4 0.2 -0.4
v -0.4 0.8 0.3
v -0.4 0.8 -0.4
v 0.5 0 0.3
v 0.5 0 -0.5
v 0.5 0.8 0.3
v 0.5 0.8 -0.5
v 0.5 0.9 0.3
v 0.5 0.9 -0.5
v -0.5 0 0.3
v -0.5 0.8 0.3
v -0.5 0.9 0.3
v -0.4 0 0.3
v -0.4 0.8 0.3
v -0.2 0.8 0.3
v -0.2 0.9 0.3
v 0.2 0.8 0.3
v 0.2 0.9 0.3
v 0.4 0 0.3
v 0.4 0.8 0.3
v 0.5 0 0.3
v 0.5 0.8 0.3
v 0.5 0.9 0.3
v -0.4 0.1 -0.2
v -0.4 0.2 -0.2
v 0.4 0.1 -0.2
v 0.4 0.2 -0.2
v -0.4 0 -0.4
v -0.4 0.1 -0.4
v -0.4 0.2 -0.4
v -0.4 0.8 -0.4
v 0.4 0 -0.4
v 0.4 0.1 -0.4
v 0.4 0.2 -0.4
v 0.4 0.8 -0.4
v -0.5 0 -0.5
v -0.5 0.8 -0.5
v -0.5 0.9 -0.5
v 0.5 0 -0.5
v 0.5 0.8 -0.5
v 0.5 0.9 -0.5
v -0.5 0 0.3
v -0.4 0 0.3
v 0.4 0 0.3
v 0.5 0 0.3
v -0.4 0 -0.4
v 0.4 0 -0.4
v -0.5 0 -0.5
v 0.5 0 -0.5
v -0.4 0.1 -0.2
v 0.4 0.1 -0.2
v -0.4 0.1 -0.4
v 0.4 0.1 -0.4
v -0.4 0.8 0.3
v -0.2 0.8 0.3
v 0.2 0.8 0.3
v 0.4 0.8 0.3
v -0.2 0.8 0.2
v 0.2 0.8 0.2
v -0.4 0.8 -0.4
v 0.4 0.8 -0.4
v -0.4 0.2 -0.2
v 0.4 0.2 -0.2
v -0.4 0.2 -0.4
v 0.4 0.2 -0.4
v -0.5 0.9 0.3
v -0.2 0.9 0.3
v 0.2 0.9 0.3
v 0.5 0.9 0.3
v -0.2 0.9 0.2
v 0.2 0.9 0.2
v -0.5 0.9 -0.5
v 0.5 0.9 -0.5

# faces
f 3/4/1 2/4/1 1/4/1
f 4/4/1 2/4/1 3/4/1
f 5/3/1 4/3/1 3/3/1
f 6/3/1 4/3/1 5/3/1
f 9/4/1 8/4/1 7/4/1
f 10/4/1 8/4/1 9/4/1
f 11/4/1 9/4/1 7/4/1
f 13/4/1 11/4/1 7/4/1
f 13/4/1 12/4/1 11/4/1
f 14/4/1 12/4/1 13/4/1
f 15/4/2 16/4/2 17/4/2
f 17/4/2 16/4/2 18/4/2
f 15/4/2 17/4/2 19/4/2
f 15/4/2 19/4/2 21/4/2
f 19/4/2 20/4/2 21/4/2
f 21/4/2 20/4/2 22/4/2
f 23/4/2 24/4/2 25/4/2
f 25/4/2 24/4/2 26/4/2
f 25/3/2 26/3/2 27/3/2
f 27/3/2 26/3/2 28/3/2
f 32/4/3 30/4/3 29/4/3
f 33/3/3 31/3/3 30/3/3
f 33/4/3 30/4/3 32/4/3
f 34/3/3 31/3/3 33/3/3
f 35/3/3 31/3/3 34/3/3
f 36/2/3 35/2/3 34/2/3
f 37/2/3 35/2/3 36/2/3
f 39/3/3 37/3/3 36/3/3
f 40/4/3 39/4/3 38/4/3
f 41/3/3 37/3/3 39/3/3
f 41/4/3 39/4/3 40/4/3
f 42/3/3 37/3/3 41/3/3
f 45/1/3 44/1/3 43/1/3
f 46/1/3 44/1/3 45/1/3
f 51/4/3 48/4/3 47/4/3
f 52/4/3 48/4/3 51/4/3
f 53/4/3 50/4/3 49/4/3
f 54/4/3 50/4/3 53/4/3
f 55/4/4 56/4/4 58/4/4
f 56/3/4 57/3/4 59/3/4
f 58/4/4 56/4/4 59/4/4
f 59/3/4 57/3/4 60/3/4
f 65/4/5 62/4/5 61/4/5
f 66/4/5 64/4/5 63/4/5
f 67/4/5 65/4/5 61/4/5
f 67/4/5 66/4/5 65/4/5
f 68/4/5 64/4/5 66/4/5
f 68/4/5 66/4/5 67/4/5
f 71/1/5 70/1/5 69/1/5
f 72/1/5 70/1/5 71/1/5
f 77/3/5 74/3/5 73/3/5
f 77/2/5 75/2/5 74/2/5
f 78/3/5 76/3/5 75/3/5
f 78/2/5 75/2/5 77/2/5
f 79/3/5 77/3/5 73/3/5
f 79/3/5 78/3/5 77/3/5
f 80/3/5 76/3/5 78/3/5
f 80/3/5 78/3/5 79/3/5
f 81/1/6 82/1/6 83/1/6
f 83/1/6 82/1/6 84/1/6
f 85/3/6 86/3/6 89/3/6
f 86/2/6 87/2/6 89/2/6
f 87/3/6 88/3/6 90/3/6
f 89/2/6 87/2/6 90/2/6
f 85/3/6 89/3/6 91/3/6
f 89/3/6 90/3/6 91/3/6
f 90/3/6 88/3/6 92/3/6
f 91/3/6 90/3/6 92/3/6
