# MagicaVoxel @ Ephtracy

# group
o 

# material
mtllib garage.mtl
usemtl palette

# normals
vn -1 0 0
vn 1 0 0
vn 0 0 1
vn 0 0 -1
vn 0 -1 0
vn 0 1 0

# texcoords
vt 0.208984 0.5
vt 0.720703 0.5
vt 0.779297 0.5

# verts
v -3.7 0 3.2
v -3.7 0 -3.7
v -3.7 0.1 3.2
v -3.7 0.1 -3.7
v -3.7 0.3 3
v -3.7 0.3 -0.4
v -3.7 0.3 -0.7
v -3.7 0.3 -3.5
v -3.7 1.1 3
v -3.7 1.1 -0.4
v -3.7 1.1 -0.7
v -3.7 1.1 -3.5
v -3.7 1.3 3.2
v -3.7 1.3 -3.7
v -1.1 1.3 3.2
v -1.1 1.3 3.1
v -1.1 1.8 3.2
v -1.1 1.8 3.1
v -0.7 1.3 3.2
v -0.7 1.3 3.1
v -0.7 1.8 3.2
v -0.7 1.8 3.1
v -0.6 0.3 3.2
v -0.6 0.3 3.1
v -0.6 1.1 3.2
v -0.6 1.1 3.1
v -0.5 1.3 3.2
v -0.5 1.3 3.1
v -0.5 1.5 3.2
v -0.5 1.5 3.1
v -0.5 1.6 3.2
v -0.5 1.6 3.1
v -0.5 1.7 3.2
v -0.5 1.7 3.1
v -0.3 1.3 3.2
v -0.3 1.3 3.1
v -0.3 1.8 3.2
v -0.3 1.8 3.1
v -0.2 0.3 -3.6
v -0.2 0.3 -3.7
v -0.2 1.1 -3.6
v -0.2 1.1 -3.7
v -0.0999999 1.6 3.2
v -0.0999999 1.6 3.1
v -0.0999999 1.7 3.2
v -0.0999999 1.7 3.1
v 0.1 1.3 3.2
v 0.1 1.3 3.1
v 0.1 1.8 3.2
v 0.1 1.8 3.1
v 0.3 1.3 3.2
v 0.3 1.3 3.1
v 0.3 1.5 3.2
v 0.3 1.5 3.1
v 0.3 1.6 3.2
v 0.3 1.6 3.1
v 0.3 1.7 3.2
v 0.3 1.7 3.1
v 0.4 0.1 3.2
v 0.4 0.1 3.1
v 0.4 1.1 3.2
v 0.4 1.1 3.1
v 0.5 1.3 3.2
v 0.5 1.3 3.1
v 0.5 1.8 3.2
v 0.5 1.8 3.1
v 0.7 1.4 3.2
v 0.7 1.4 3.1
v 0.7 1.5 3.2
v 0.7 1.5 3.1
v 0.7 1.6 3.2
v 0.7 1.6 3.1
v 0.7 1.7 3.2
v 0.7 1.7 3.1
v 0.9 1.3 3.2
v 0.9 1.3 3.1
v 0.9 1.5 3.2
v 0.9 1.5 3.1
v 0.9 1.6 3.2
v 0.9 1.6 3.1
v 0.9 1.8 3.2
v 0.9 1.8 3.1
v 3.5 0.3 3.2
v 3.5 0.3 3.1
v 3.5 0.3 -3.6
v 3.5 0.3 -3.7
v 3.5 1.1 3.2
v 3.5 1.1 3.1
v 3.5 1.1 -3.6
v 3.5 1.1 -3.7
v 3.6 0.1 3.1
v 3.6 0.1 -3.6
v 3.6 0.3 3
v 3.6 0.3 -0.4
v 3.6 0.3 -0.7
v 3.6 0.3 -3.5
v 3.6 1.1 3
v 3.6 1.1 -0.4
v 3.6 1.1 -0.7
v 3.6 1.1 -3.5
v 3.6 1.2 3.1
v 3.6 1.2 -3.6
v -3.6 0.1 3.1
v -3.6 0.1 -3.6
v -3.6 0.3 3
v -3.6 0.3 -0.4
v -3.6 0.3 -0.7
v -3.6 0.3 -3.5
v -3.6 1.1 3
v -3.6 1.1 -0.4
v -3.6 1.1 -0.7
v -3.6 1.1 -3.5
v -3.6 1.2 3.1
v -3.6 1.2 -3.6
v -3.5 0.3 3.2
v -3.5 0.3 3.1
v -3.5 0.3 -3.6
v -3.5 0.3 -3.7
v -3.5 1.1 3.2
v -3.5 1.1 3.1
v -3.5 1.1 -3.6
v -3.5 1.1 -3.7
v -1 1.3 3.2
v -1 1.3 3.1
v -1 1.7 3.2
v -1 1.7 3.1
v -0.8 1.7 3.2
v -0.8 1.7 3.1
v -0.8 1.8 3.2
v -0.8 1.8 3.1
v -0.6 1.3 3.2
v -0.6 1.3 3.1
v -0.6 1.5 3.2
v -0.6 1.5 3.1
v -0.6 1.6 3.2
v -0.6 1.6 3.1
v -0.6 1.7 3.2
v -0.6 1.7 3.1
v -0.4 0.1 3.2
v -0.4 0.1 3.1
v -0.4 1.1 3.2
v -0.4 1.1 3.1
v -0.4 1.3 3.2
v -0.4 1.3 3.1
v -0.4 1.8 3.2
v -0.4 1.8 3.1
v -0.2 1.3 3.2
v -0.2 1.3 3.1
v -0.2 1.5 3.2
v -0.2 1.5 3.1
v -0.2 1.6 3.2
v -0.2 1.6 3.1
v -0.2 1.7 3.2
v -0.2 1.7 3.1
v 0 1.5 3.2
v 0 1.5 3.1
v 0 1.8 3.2
v 0 1.8 3.1
v 0.2 0.3 -3.6
v 0.2 0.3 -3.7
v 0.2 1.1 -3.6
v 0.2 1.1 -3.7
v 0.2 1.3 3.2
v 0.2 1.3 3.1
v 0.2 1.5 3.2
v 0.2 1.5 3.1
v 0.2 1.6 3.2
v 0.2 1.6 3.1
v 0.2 1.7 3.2
v 0.2 1.7 3.1
v 0.4 1.3 3.2
v 0.4 1.3 3.1
v 0.4 1.8 3.2
v 0.4 1.8 3.1
v 0.6 0.3 3.2
v 0.6 0.3 3.1
v 0.6 1.1 3.2
v 0.6 1.1 3.1
v 0.6 1.3 3.2
v 0.6 1.3 3.1
v 0.6 1.5 3.2
v 0.6 1.5 3.1
v 0.6 1.6 3.2
v 0.6 1.6 3.1
v 0.6 1.8 3.2
v 0.6 1.8 3.1
v 0.8 1.4 3.2
v 0.8 1.4 3.1
v 0.8 1.5 3.2
v 0.8 1.5 3.1
v 0.8 1.6 3.2
v 0.8 1.6 3.1
v 0.8 1.7 3.2
v 0.8 1.7 3.1
v 1 1.3 3.2
v 1 1.3 3.1
v 1 1.8 3.2
v 1 1.8 3.1
v 3.7 0 3.2
v 3.7 0 -3.7
v 3.7 0.1 3.2
v 3.7 0.1 -3.7
v 3.7 0.3 3
v 3.7 0.3 -0.4
v 3.7 0.3 -0.7
v 3.7 0.3 -3.5
v 3.7 1.1 3
v 3.7 1.1 -0.4
v 3.7 1.1 -0.7
v 3.7 1.1 -3.5
v 3.7 1.3 3.2
v 3.7 1.3 -3.7
v -3.7 0 3.2
v -3.7 0.1 3.2
v -3.7 1.3 3.2
v -3.5 0.3 3.2
v -3.5 1.1 3.2
v -1.1 1.3 3.2
v -1.1 1.8 3.2
v -1 1.3 3.2
v -1 1.7 3.2
v -0.8 1.7 3.2
v -0.8 1.8 3.2
v -0.7 1.3 3.2
v -0.7 1.8 3.2
v -0.6 0.3 3.2
v -0.6 1.1 3.2
v -0.6 1.3 3.2
v -0.6 1.5 3.2
v -0.6 1.6 3.2
v -0.6 1.7 3.2
v -0.5 1.3 3.2
v -0.5 1.5 3.2
v -0.5 1.6 3.2
v -0.5 1.7 3.2
v -0.4 0.1 3.2
v -0.4 1.1 3.2
v -0.4 1.3 3.2
v -0.4 1.8 3.2
v -0.3 1.3 3.2
v -0.3 1.8 3.2
v -0.2 1.3 3.2
v -0.2 1.5 3.2
v -0.2 1.6 3.2
v -0.2 1.7 3.2
v -0.0999999 1.6 3.2
v -0.0999999 1.7 3.2
v 0 1.5 3.2
v 0 1.8 3.2
v 0.1 1.3 3.2
v 0.1 1.8 3.2
v 0.2 1.3 3.2
v 0.2 1.5 3.2
v 0.2 1.6 3.2
v 0.2 1.7 3.2
v 0.3 1.3 3.2
v 0.3 1.5 3.2
v 0.3 1.6 3.2
v 0.3 1.7 3.2
v 0.4 0.1 3.2
v 0.4 1.1 3.2
v 0.4 1.3 3.2
v 0.4 1.8 3.2
v 0.5 1.3 3.2
v 0.5 1.8 3.2
v 0.6 0.3 3.2
v 0.6 1.1 3.2
v 0.6 1.3 3.2
v 0.6 1.5 3.2
v 0.6 1.6 3.2
v 0.6 1.8 3.2
v 0.7 1.4 3.2
v 0.7 1.5 3.2
v 0.7 1.6 3.2
v 0.7 1.7 3.2
v 0.8 1.4 3.2
v 0.8 1.5 3.2
v 0.8 1.6 3.2
v 0.8 1.7 3.2
v 0.9 1.3 3.2
v 0.9 1.5 3.2
v 0.9 1.6 3.2
v 0.9 1.8 3.2
v 1 1.3 3.2
v 1 1.8 3.2
v 3.5 0.3 3.2
v 3.5 1.1 3.2
v 3.7 0 3.2
v 3.7 0.1 3.2
v 3.7 1.3 3.2
v -3.7 0.3 -0.4
v -3.7 1.1 -0.4
v -3.6 0.3 -0.4
v -3.6 1.1 -0.4
v 3.6 0.3 -0.4
v 3.6 1.1 -0.4
v 3.7 0.3 -0.4
v 3.7 1.1 -0.4
v -3.7 0.3 -3.5
v -3.7 1.1 -3.5
v -3.6 0.3 -3.5
v -3.6 1.1 -3.5
v 3.6 0.3 -3.5
v 3.6 1.1 -3.5
v 3.7 0.3 -3.5
v 3.7 1.1 -3.5
v -3.6 0.1 -3.6
v -3.6 1.2 -3.6
v -3.5 0.3 -3.6
v -3.5 1.1 -3.6
v -0.2 0.3 -3.6
v -0.2 1.1 -3.6
v 0.2 0.3 -3.6
v 0.2 1.1 -3.6
v 3.5 0.3 -3.6
v 3.5 1.1 -3.6
v 3.6 0.1 -3.6
v 3.6 1.2 -3.6
v -3.6 0.1 3.1
v -3.6 1.2 3.1
v -3.5 0.3 3.1
v -3.5 1.1 3.1
v -1.1 1.3 3.1
v -1.1 1.8 3.1
v -1 1.3 3.1
v -1 1.7 3.1
v -0.8 1.7 3.1
v -0.8 1.8 3.1
v -0.7 1.3 3.1
v -0.7 1.8 3.1
v -0.6 0.3 3.1
v -0.6 1.1 3.1
v -0.6 1.3 3.1
v -0.6 1.5 3.1
v -0.6 1.6 3.1
v -0.6 1.7 3.1
v -0.5 1.3 3.1
v -0.5 1.5 3.1
v -0.5 1.6 3.1
v -0.5 1.7 3.1
v -0.4 0.1 3.1
v -0.4 1.1 3.1
v -0.4 1.3 3.1
v -0.4 1.8 3.1
v -0.3 1.3 3.1
v -0.3 1.8 3.1
v -0.2 1.3 3.1
v -0.2 1.5 3.1
v -0.2 1.6 3.1
v -0.2 1.7 3.1
v -0.0999999 1.6 3.1
v -0.0999999 1.7 3.1
v 0 1.5 3.1
v 0 1.8 3.1
v 0.1 1.3 3.1
v 0.1 1.8 3.1
v 0.2 1.3 3.1
v 0.2 1.5 3.1
v 0.2 1.6 3.1
v 0.2 1.7 3.1
v 0.3 1.3 3.1
v 0.3 1.5 3.1
v 0.3 1.6 3.1
v 0.3 1.7 3.1
v 0.4 0.1 3.1
v 0.4 1.1 3.1
v 0.4 1.3 3.1
v 0.4 1.8 3.1
v 0.5 1.3 3.1
v 0.5 1.8 3.1
v 0.6 0.3 3.1
v 0.6 1.1 3.1
v 0.6 1.3 3.1
v 0.6 1.5 3.1
v 0.6 1.6 3.1
v 0.6 1.8 3.1
v 0.7 1.4 3.1
v 0.7 1.5 3.1
v 0.7 1.6 3.1
v 0.7 1.7 3.1
v 0.8 1.4 3.1
v 0.8 1.5 3.1
v 0.8 1.6 3.1
v 0.8 1.7 3.1
v 0.9 1.3 3.1
v 0.9 1.5 3.1
v 0.9 1.6 3.1
v 0.9 1.8 3.1
v 1 1.3 3.1
v 1 1.8 3.1
v 3.5 0.3 3.1
v 3.5 1.1 3.1
v 3.6 0.1 3.1
v 3.6 1.2 3.1
v -3.7 0.3 3
v -3.7 1.1 3
v -3.6 0.3 3
v -3.6 1.1 3
v 3.6 0.3 3
v 3.6 1.1 3
v 3.7 0.3 3
v 3.7 1.1 3
v -3.7 0.3 -0.7
v -3.7 1.1 -0.7
v -3.6 0.3 -0.7
v -3.6 1.1 -0.7
v 3.6 0.3 -0.7
v 3.6 1.1 -0.7
v 3.7 0.3 -0.7
v 3.7 1.1 -0.7
v -3.7 0 -3.7
v -3.7 0.1 -3.7
v -3.7 1.3 -3.7
v -3.5 0.3 -3.7
v -3.5 1.1 -3.7
v -0.2 0.3 -3.7
v -0.2 1.1 -3.7
v 0.2 0.3 -3.7
v 0.2 1.1 -3.7
v 3.5 0.3 -3.7
v 3.5 1.1 -3.7
v 3.7 0 -3.7
v 3.7 0.1 -3.7
v 3.7 1.3 -3.7
v -3.7 0 3.2
v 3.7 0 3.2
v -3.7 0 -3.7
v 3.7 0 -3.7
v -3.5 1.1 3.2
v -0.6 1.1 3.2
v -0.4 1.1 3.2
v 0.4 1.1 3.2
v 0.6 1.1 3.2
v 3.5 1.1 3.2
v -3.5 1.1 3.1
v -0.6 1.1 3.1
v -0.4 1.1 3.1
v 0.4 1.1 3.1
v 0.6 1.1 3.1
v 3.5 1.1 3.1
v -3.7 1.1 3
v -3.6 1.1 3
v 3.6 1.1 3
v 3.7 1.1 3
v -3.7 1.1 -0.4
v -3.6 1.1 -0.4
v 3.6 1.1 -0.4
v 3.7 1.1 -0.4
v -3.7 1.1 -0.7
v -3.6 1.1 -0.7
v 3.6 1.1 -0.7
v 3.7 1.1 -0.7
v -3.7 1.1 -3.5
v -3.6 1.1 -3.5
v 3.6 1.1 -3.5
v 3.7 1.1 -3.5
v -3.5 1.1 -3.6
v -0.2 1.1 -3.6
v 0.2 1.1 -3.6
v 3.5 1.1 -3.6
v -3.5 1.1 -3.7
v -0.2 1.1 -3.7
v 0.2 1.1 -3.7
v 3.5 1.1 -3.7
v -3.6 1.2 3.1
v 3.6 1.2 3.1
v -3.6 1.2 -3.6
v 3.6 1.2 -3.6
v 0.7 1.4 3.2
v 0.8 1.4 3.2
v 0.7 1.4 3.1
v 0.8 1.4 3.1
v -0.6 1.5 3.2
v -0.5 1.5 3.2
v -0.2 1.5 3.2
v 0 1.5 3.2
v 0.2 1.5 3.2
v 0.3 1.5 3.2
v 0.6 1.5 3.2
v 0.7 1.5 3.2
v 0.8 1.5 3.2
v 0.9 1.5 3.2
v -0.6 1.5 3.1
v -0.5 1.5 3.1
v -0.2 1.5 3.1
v 0 1.5 3.1
v 0.2 1.5 3.1
v 0.3 1.5 3.1
v 0.6 1.5 3.1
v 0.7 1.5 3.1
v 0.8 1.5 3.1
v 0.9 1.5 3.1
v -1 1.7 3.2
v -0.8 1.7 3.2
v -0.6 1.7 3.2
v -0.5 1.7 3.2
v -0.2 1.7 3.2
v -0.0999999 1.7 3.2
v 0.2 1.7 3.2
v 0.3 1.7 3.2
v -1 1.7 3.1
v -0.8 1.7 3.1
v -0.6 1.7 3.1
v -0.5 1.7 3.1
v -0.2 1.7 3.1
v -0.0999999 1.7 3.1
v 0.2 1.7 3.1
v 0.3 1.7 3.1
v -0.4 0.1 3.2
v 0.4 0.1 3.2
v -3.6 0.1 3.1
v -0.4 0.1 3.1
v 0.4 0.1 3.1
v 3.6 0.1 3.1
v -3.6 0.1 -3.6
v 3.6 0.1 -3.6
v -3.5 0.3 3.2
v -0.6 0.3 3.2
v 0.6 0.3 3.2
v 3.5 0.3 3.2
v -3.5 0.3 3.1
v -0.6 0.3 3.1
v 0.6 0.3 3.1
v 3.5 0.3 3.1
v -3.7 0.3 3
v -3.6 0.3 3
v 3.6 0.3 3
v 3.7 0.3 3
v -3.7 0.3 -0.4
v -3.6 0.3 -0.4
v 3.6 0.3 -0.4
v 3.7 0.3 -0.4
v -3.7 0.3 -0.7
v -3.6 0.3 -0.7
v 3.6 0.3 -0.7
v 3.7 0.3 -0.7
v -3.7 0.3 -3.5
v -3.6 0.3 -3.5
v 3.6 0.3 -3.5
v 3.7 0.3 -3.5
v -3.5 0.3 -3.6
v -0.2 0.3 -3.6
v 0.2 0.3 -3.6
v 3.5 0.3 -3.6
v -3.5 0.3 -3.7
v -0.2 0.3 -3.7
v 0.2 0.3 -3.7
v 3.5 0.3 -3.7
v -3.7 1.3 3.2
v -1.1 1.3 3.2
v -1 1.3 3.2
v -0.7 1.3 3.2
v -0.6 1.3 3.2
v -0.5 1.3 3.2
v -0.4 1.3 3.2
v -0.3 1.3 3.2
v -0.2 1.3 3.2
v 0.1 1.3 3.2
v 0.2 1.3 3.2
v 0.3 1.3 3.2
v 0.4 1.3 3.2
v 0.5 1.3 3.2
v 0.6 1.3 3.2
v 0.9 1.3 3.2
v 1 1.3 3.2
v 3.7 1.3 3.2
v -1.1 1.3 3.1
v -1 1.3 3.1
v -0.7 1.3 3.1
v -0.6 1.3 3.1
v -0.5 1.3 3.1
v -0.4 1.3 3.1
v -0.3 1.3 3.1
v -0.2 1.3 3.1
v 0.1 1.3 3.1
v 0.2 1.3 3.1
v 0.3 1.3 3.1
v 0.4 1.3 3.1
v 0.5 1.3 3.1
v 0.6 1.3 3.1
v 0.9 1.3 3.1
v 1 1.3 3.1
v -3.7 1.3 -3.7
v 3.7 1.3 -3.7
v -0.6 1.6 3.2
v -0.5 1.6 3.2
v -0.2 1.6 3.2
v -0.0999999 1.6 3.2
v 0.2 1.6 3.2
v 0.3 1.6 3.2
v 0.6 1.6 3.2
v 0.7 1.6 3.2
v 0.8 1.6 3.2
v 0.9 1.6 3.2
v -0.6 1.6 3.1
v -0.5 1.6 3.1
v -0.2 1.6 3.1
v -0.0999999 1.6 3.1
v 0.2 1.6 3.1
v 0.3 1.6 3.1
v 0.6 1.6 3.1
v 0.7 1.6 3.1
v 0.8 1.6 3.1
v 0.9 1.6 3.1
v 0.7 1.7 3.2
v 0.8 1.7 3.2
v 0.7 1.7 3.1
v 0.8 1.7 3.1
v -1.1 1.8 3.2
v -0.8 1.8 3.2
v -0.7 1.8 3.2
v -0.4 1.8 3.2
v -0.3 1.8 3.2
v 0 1.8 3.2
v 0.1 1.8 3.2
v 0.4 1.8 3.2
v 0.5 1.8 3.2
v 0.6 1.8 3.2
v 0.9 1.8 3.2
v 1 1.8 3.2
v -1.1 1.8 3.1
v -0.8 1.8 3.1
v -0.7 1.8 3.1
v -0.4 1.8 3.1
v -0.3 1.8 3.1
v 0 1.8 3.1
v 0.1 1.8 3.1
v 0.4 1.8 3.1
v 0.5 1.8 3.1
v 0.6 1.8 3.1
v 0.9 1.8 3.1
v 1 1.8 3.1

# faces
f 3/3/1 2/3/1 1/3/1
f 4/3/1 2/3/1 3/3/1
f 5/2/1 4/2/1 3/2/1
f 6/2/1 4/2/1 5/2/1
f 7/2/1 4/2/1 6/2/1
f 8/2/1 4/2/1 7/2/1
f 9/2/1 5/2/1 3/2/1
f 10/2/1 7/2/1 6/2/1
f 11/2/1 7/2/1 10/2/1
f 12/2/1 4/2/1 8/2/1
f 13/2/1 11/2/1 10/2/1
f 13/2/1 12/2/1 11/2/1
f 13/2/1 9/2/1 3/2/1
f 13/2/1 10/2/1 9/2/1
f 14/2/1 4/2/1 12/2/1
f 14/2/1 12/2/1 13/2/1
f 17/1/1 16/1/1 15/1/1
f 18/1/1 16/1/1 17/1/1
f 21/1/1 20/1/1 19/1/1
f 22/1/1 20/1/1 21/1/1
f 25/2/1 24/2/1 23/2/1
f 26/2/1 24/2/1 25/2/1
f 29/1/1 28/1/1 27/1/1
f 30/1/1 28/1/1 29/1/1
f 33/1/1 32/1/1 31/1/1
f 34/1/1 32/1/1 33/1/1
f 37/1/1 36/1/1 35/1/1
f 38/1/1 36/1/1 37/1/1
f 41/2/1 40/2/1 39/2/1
f 42/2/1 40/2/1 41/2/1
f 45/1/1 44/1/1 43/1/1
f 46/1/1 44/1/1 45/1/1
f 49/1/1 48/1/1 47/1/1
f 50/1/1 48/1/1 49/1/1
f 53/1/1 52/1/1 51/1/1
f 54/1/1 52/1/1 53/1/1
f 57/1/1 56/1/1 55/1/1
f 58/1/1 56/1/1 57/1/1
f 61/2/1 60/2/1 59/2/1
f 62/2/1 60/2/1 61/2/1
f 65/1/1 64/1/1 63/1/1
f 66/1/1 64/1/1 65/1/1
f 69/1/1 68/1/1 67/1/1
f 70/1/1 68/1/1 69/1/1
f 73/1/1 72/1/1 71/1/1
f 74/1/1 72/1/1 73/1/1
f 77/1/1 76/1/1 75/1/1
f 78/1/1 76/1/1 77/1/1
f 81/1/1 80/1/1 79/1/1
f 82/1/1 80/1/1 81/1/1
f 87/2/1 84/2/1 83/2/1
f 88/2/1 84/2/1 87/2/1
f 89/2/1 86/2/1 85/2/1
f 90/2/1 86/2/1 89/2/1
f 93/2/1 92/2/1 91/2/1
f 94/2/1 92/2/1 93/2/1
f 95/2/1 92/2/1 94/2/1
f 96/2/1 92/2/1 95/2/1
f 97/2/1 93/2/1 91/2/1
f 98/2/1 95/2/1 94/2/1
f 99/2/1 95/2/1 98/2/1
f 100/2/1 92/2/1 96/2/1
f 101/2/1 99/2/1 98/2/1
f 101/2/1 100/2/1 99/2/1
f 101/2/1 97/2/1 91/2/1
f 101/2/1 98/2/1 97/2/1
f 102/2/1 92/2/1 100/2/1
f 102/2/1 100/2/1 101/2/1
f 103/2/2 104/2/2 105/2/2
f 105/2/2 104/2/2 106/2/2
f 106/2/2 104/2/2 107/2/2
f 107/2/2 104/2/2 108/2/2
f 103/2/2 105/2/2 109/2/2
f 106/2/2 107/2/2 110/2/2
f 110/2/2 107/2/2 111/2/2
f 108/2/2 104/2/2 112/2/2
f 110/2/2 111/2/2 113/2/2
f 111/2/2 112/2/2 113/2/2
f 103/2/2 109/2/2 113/2/2
f 109/2/2 110/2/2 113/2/2
f 112/2/2 104/2/2 114/2/2
f 113/2/2 112/2/2 114/2/2
f 115/2/2 116/2/2 119/2/2
f 119/2/2 116/2/2 120/2/2
f 117/2/2 118/2/2 121/2/2
f 121/2/2 118/2/2 122/2/2
f 123/1/2 124/1/2 125/1/2
f 125/1/2 124/1/2 126/1/2
f 127/1/2 128/1/2 129/1/2
f 129/1/2 128/1/2 130/1/2
f 131/1/2 132/1/2 133/1/2
f 133/1/2 132/1/2 134/1/2
f 135/1/2 136/1/2 137/1/2
f 137/1/2 136/1/2 138/1/2
f 139/2/2 140/2/2 141/2/2
f 141/2/2 140/2/2 142/2/2
f 143/1/2 144/1/2 145/1/2
f 145/1/2 144/1/2 146/1/2
f 147/1/2 148/1/2 149/1/2
f 149/1/2 148/1/2 150/1/2
f 151/1/2 152/1/2 153/1/2
f 153/1/2 152/1/2 154/1/2
f 155/1/2 156/1/2 157/1/2
f 157/1/2 156/1/2 158/1/2
f 159/2/2 160/2/2 161/2/2
f 161/2/2 160/2/2 162/2/2
f 163/1/2 164/1/2 165/1/2
f 165/1/2 164/1/2 166/1/2
f 167/1/2 168/1/2 169/1/2
f 169/1/2 168/1/2 170/1/2
f 171/1/2 172/1/2 173/1/2
f 173/1/2 172/1/2 174/1/2
f 175/2/2 176/2/2 177/2/2
f 177/2/2 176/2/2 178/2/2
f 179/1/2 180/1/2 181/1/2
f 181/1/2 180/1/2 182/1/2
f 183/1/2 184/1/2 185/1/2
f 185/1/2 184/1/2 186/1/2
f 187/1/2 188/1/2 189/1/2
f 189/1/2 188/1/2 190/1/2
f 191/1/2 192/1/2 193/1/2
f 193/1/2 192/1/2 194/1/2
f 195/1/2 196/1/2 197/1/2
f 197/1/2 196/1/2 198/1/2
f 199/3/2 200/3/2 201/3/2
f 201/3/2 200/3/2 202/3/2
f 201/2/2 202/2/2 203/2/2
f 203/2/2 202/2/2 204/2/2
f 204/2/2 202/2/2 205/2/2
f 205/2/2 202/2/2 206/2/2
f 201/2/2 203/2/2 207/2/2
f 204/2/2 205/2/2 208/2/2
f 208/2/2 205/2/2 209/2/2
f 206/2/2 202/2/2 210/2/2
f 208/2/2 209/2/2 211/2/2
f 209/2/2 210/2/2 211/2/2
f 201/2/2 207/2/2 211/2/2
f 207/2/2 208/2/2 211/2/2
f 210/2/2 202/2/2 212/2/2
f 211/2/2 210/2/2 212/2/2
f 216/2/3 215/2/3 214/2/3
f 217/2/3 215/2/3 216/2/3
f 218/2/3 215/2/3 217/2/3
f 220/2/3 218/2/3 217/2/3
f 220/1/3 219/1/3 218/1/3
f 221/1/3 219/1/3 220/1/3
f 222/1/3 219/1/3 221/1/3
f 223/1/3 219/1/3 222/1/3
f 224/2/3 220/2/3 217/2/3
f 226/2/3 216/2/3 214/2/3
f 227/2/3 224/2/3 217/2/3
f 228/1/3 225/1/3 224/1/3
f 228/2/3 224/2/3 227/2/3
f 229/1/3 225/1/3 228/1/3
f 230/1/3 225/1/3 229/1/3
f 231/1/3 225/1/3 230/1/3
f 232/2/3 227/2/3 226/2/3
f 232/2/3 228/2/3 227/2/3
f 233/1/3 230/1/3 229/1/3
f 234/1/3 230/1/3 233/1/3
f 235/1/3 225/1/3 231/1/3
f 236/3/3 214/3/3 213/3/3
f 236/2/3 226/2/3 214/2/3
f 236/2/3 232/2/3 226/2/3
f 237/2/3 232/2/3 236/2/3
f 238/1/3 235/1/3 234/1/3
f 238/2/3 232/2/3 237/2/3
f 238/1/3 234/1/3 233/1/3
f 238/1/3 233/1/3 232/1/3
f 239/1/3 225/1/3 235/1/3
f 239/1/3 235/1/3 238/1/3
f 240/2/3 238/2/3 237/2/3
f 242/2/3 240/2/3 237/2/3
f 242/1/3 241/1/3 240/1/3
f 243/1/3 241/1/3 242/1/3
f 244/1/3 241/1/3 243/1/3
f 245/1/3 241/1/3 244/1/3
f 246/1/3 244/1/3 243/1/3
f 247/1/3 241/1/3 245/1/3
f 248/1/3 246/1/3 243/1/3
f 248/1/3 247/1/3 246/1/3
f 249/1/3 241/1/3 247/1/3
f 249/1/3 247/1/3 248/1/3
f 250/2/3 242/2/3 237/2/3
f 252/2/3 250/2/3 237/2/3
f 252/1/3 251/1/3 250/1/3
f 253/1/3 251/1/3 252/1/3
f 254/1/3 251/1/3 253/1/3
f 255/1/3 251/1/3 254/1/3
f 256/2/3 252/2/3 237/2/3
f 257/1/3 254/1/3 253/1/3
f 258/1/3 254/1/3 257/1/3
f 259/1/3 251/1/3 255/1/3
f 260/3/3 236/3/3 213/3/3
f 261/2/3 256/2/3 237/2/3
f 262/1/3 259/1/3 258/1/3
f 262/1/3 258/1/3 257/1/3
f 262/2/3 256/2/3 261/2/3
f 262/1/3 257/1/3 256/1/3
f 263/1/3 251/1/3 259/1/3
f 263/1/3 259/1/3 262/1/3
f 264/2/3 261/2/3 260/2/3
f 264/2/3 262/2/3 261/2/3
f 266/2/3 264/2/3 260/2/3
f 267/2/3 264/2/3 266/2/3
f 268/1/3 265/1/3 264/1/3
f 268/2/3 264/2/3 267/2/3
f 269/1/3 265/1/3 268/1/3
f 270/1/3 265/1/3 269/1/3
f 271/1/3 265/1/3 270/1/3
f 273/1/3 270/1/3 269/1/3
f 274/1/3 270/1/3 273/1/3
f 276/1/3 273/1/3 272/1/3
f 276/1/3 275/1/3 274/1/3
f 276/1/3 274/1/3 273/1/3
f 277/1/3 275/1/3 276/1/3
f 278/1/3 275/1/3 277/1/3
f 279/1/3 275/1/3 278/1/3
f 280/2/3 268/2/3 267/2/3
f 281/1/3 278/1/3 277/1/3
f 282/1/3 278/1/3 281/1/3
f 284/1/3 282/1/3 281/1/3
f 284/1/3 283/1/3 282/1/3
f 284/1/3 281/1/3 280/1/3
f 284/2/3 280/2/3 267/2/3
f 285/1/3 283/1/3 284/1/3
f 286/2/3 266/2/3 260/2/3
f 287/2/3 284/2/3 267/2/3
f 288/3/3 260/3/3 213/3/3
f 289/2/3 287/2/3 286/2/3
f 289/3/3 260/3/3 288/3/3
f 289/2/3 286/2/3 260/2/3
f 290/2/3 284/2/3 287/2/3
f 290/2/3 287/2/3 289/2/3
f 293/2/3 292/2/3 291/2/3
f 294/2/3 292/2/3 293/2/3
f 297/2/3 296/2/3 295/2/3
f 298/2/3 296/2/3 297/2/3
f 301/2/3 300/2/3 299/2/3
f 302/2/3 300/2/3 301/2/3
f 305/2/3 304/2/3 303/2/3
f 306/2/3 304/2/3 305/2/3
f 309/2/3 308/2/3 307/2/3
f 310/2/3 308/2/3 309/2/3
f 311/2/3 309/2/3 307/2/3
f 312/2/3 308/2/3 310/2/3
f 313/2/3 311/2/3 307/2/3
f 313/2/3 312/2/3 311/2/3
f 314/2/3 308/2/3 312/2/3
f 314/2/3 312/2/3 313/2/3
f 315/2/3 313/2/3 307/2/3
f 316/2/3 308/2/3 314/2/3
f 317/2/3 315/2/3 307/2/3
f 317/2/3 316/2/3 315/2/3
f 318/2/3 308/2/3 316/2/3
f 318/2/3 316/2/3 317/2/3
f 319/2/4 320/2/4 321/2/4
f 321/2/4 320/2/4 322/2/4
f 323/1/4 324/1/4 325/1/4
f 325/1/4 324/1/4 326/1/4
f 326/1/4 324/1/4 327/1/4
f 327/1/4 324/1/4 328/1/4
f 319/2/4 321/2/4 331/2/4
f 322/2/4 320/2/4 332/2/4
f 329/1/4 330/1/4 333/1/4
f 333/1/4 330/1/4 334/1/4
f 334/1/4 330/1/4 335/1/4
f 335/1/4 330/1/4 336/1/4
f 334/1/4 335/1/4 338/1/4
f 338/1/4 335/1/4 339/1/4
f 336/1/4 330/1/4 340/1/4
f 331/2/4 332/2/4 341/2/4
f 319/2/4 331/2/4 341/2/4
f 332/2/4 320/2/4 342/2/4
f 341/2/4 332/2/4 342/2/4
f 339/1/4 340/1/4 343/1/4
f 338/1/4 339/1/4 343/1/4
f 337/1/4 338/1/4 343/1/4
f 340/1/4 330/1/4 344/1/4
f 343/1/4 340/1/4 344/1/4
f 345/1/4 346/1/4 347/1/4
f 347/1/4 346/1/4 348/1/4
f 348/1/4 346/1/4 349/1/4
f 349/1/4 346/1/4 350/1/4
f 348/1/4 349/1/4 351/1/4
f 350/1/4 346/1/4 352/1/4
f 348/1/4 351/1/4 353/1/4
f 351/1/4 352/1/4 353/1/4
f 352/1/4 346/1/4 354/1/4
f 353/1/4 352/1/4 354/1/4
f 355/1/4 356/1/4 357/1/4
f 357/1/4 356/1/4 358/1/4
f 358/1/4 356/1/4 359/1/4
f 359/1/4 356/1/4 360/1/4
f 358/1/4 359/1/4 362/1/4
f 362/1/4 359/1/4 363/1/4
f 360/1/4 356/1/4 364/1/4
f 342/2/4 320/2/4 366/2/4
f 363/1/4 364/1/4 367/1/4
f 362/1/4 363/1/4 367/1/4
f 361/1/4 362/1/4 367/1/4
f 364/1/4 356/1/4 368/1/4
f 367/1/4 364/1/4 368/1/4
f 365/2/4 366/2/4 371/2/4
f 366/2/4 320/2/4 372/2/4
f 371/2/4 366/2/4 372/2/4
f 369/1/4 370/1/4 373/1/4
f 373/1/4 370/1/4 374/1/4
f 374/1/4 370/1/4 375/1/4
f 375/1/4 370/1/4 376/1/4
f 374/1/4 375/1/4 378/1/4
f 378/1/4 375/1/4 379/1/4
f 377/1/4 378/1/4 381/1/4
f 379/1/4 380/1/4 381/1/4
f 378/1/4 379/1/4 381/1/4
f 381/1/4 380/1/4 382/1/4
f 382/1/4 380/1/4 383/1/4
f 383/1/4 380/1/4 384/1/4
f 382/1/4 383/1/4 386/1/4
f 386/1/4 383/1/4 387/1/4
f 386/1/4 387/1/4 389/1/4
f 387/1/4 388/1/4 389/1/4
f 385/1/4 386/1/4 389/1/4
f 389/1/4 388/1/4 390/1/4
f 365/2/4 371/2/4 391/2/4
f 372/2/4 320/2/4 392/2/4
f 365/2/4 391/2/4 393/2/4
f 391/2/4 392/2/4 393/2/4
f 392/2/4 320/2/4 394/2/4
f 393/2/4 392/2/4 394/2/4
f 395/2/4 396/2/4 397/2/4
f 397/2/4 396/2/4 398/2/4
f 399/2/4 400/2/4 401/2/4
f 401/2/4 400/2/4 402/2/4
f 403/2/4 404/2/4 405/2/4
f 405/2/4 404/2/4 406/2/4
f 407/2/4 408/2/4 409/2/4
f 409/2/4 408/2/4 410/2/4
f 412/2/4 413/2/4 414/2/4
f 414/2/4 413/2/4 415/2/4
f 412/2/4 414/2/4 416/2/4
f 415/2/4 413/2/4 417/2/4
f 412/2/4 416/2/4 418/2/4
f 416/2/4 417/2/4 418/2/4
f 417/2/4 413/2/4 419/2/4
f 418/2/4 417/2/4 419/2/4
f 412/2/4 418/2/4 420/2/4
f 419/2/4 413/2/4 421/2/4
f 411/3/4 412/3/4 422/3/4
f 420/2/4 421/2/4 423/2/4
f 422/3/4 412/3/4 423/3/4
f 412/2/4 420/2/4 423/2/4
f 421/2/4 413/2/4 424/2/4
f 423/2/4 421/2/4 424/2/4
f 427/3/5 426/3/5 425/3/5
f 428/3/5 426/3/5 427/3/5
f 435/2/5 430/2/5 429/2/5
f 436/2/5 430/2/5 435/2/5
f 437/2/5 432/2/5 431/2/5
f 438/2/5 432/2/5 437/2/5
f 439/2/5 434/2/5 433/2/5
f 440/2/5 434/2/5 439/2/5
f 445/2/5 442/2/5 441/2/5
f 446/2/5 442/2/5 445/2/5
f 447/2/5 444/2/5 443/2/5
f 448/2/5 444/2/5 447/2/5
f 453/2/5 450/2/5 449/2/5
f 454/2/5 450/2/5 453/2/5
f 455/2/5 452/2/5 451/2/5
f 456/2/5 452/2/5 455/2/5
f 461/2/5 458/2/5 457/2/5
f 462/2/5 458/2/5 461/2/5
f 463/2/5 460/2/5 459/2/5
f 464/2/5 460/2/5 463/2/5
f 467/2/5 466/2/5 465/2/5
f 468/2/5 466/2/5 467/2/5
f 471/1/5 470/1/5 469/1/5
f 472/1/5 470/1/5 471/1/5
f 483/1/5 474/1/5 473/1/5
f 484/1/5 474/1/5 483/1/5
f 485/1/5 476/1/5 475/1/5
f 486/1/5 476/1/5 485/1/5
f 487/1/5 478/1/5 477/1/5
f 488/1/5 478/1/5 487/1/5
f 489/1/5 480/1/5 479/1/5
f 490/1/5 480/1/5 489/1/5
f 491/1/5 482/1/5 481/1/5
f 492/1/5 482/1/5 491/1/5
f 501/1/5 494/1/5 493/1/5
f 502/1/5 494/1/5 501/1/5
f 503/1/5 496/1/5 495/1/5
f 504/1/5 496/1/5 503/1/5
f 505/1/5 498/1/5 497/1/5
f 506/1/5 498/1/5 505/1/5
f 507/1/5 500/1/5 499/1/5
f 508/1/5 500/1/5 507/1/5
f 509/3/6 510/3/6 512/3/6
f 512/3/6 510/3/6 513/3/6
f 511/3/6 512/3/6 515/3/6
f 513/3/6 514/3/6 515/3/6
f 512/3/6 513/3/6 515/3/6
f 515/3/6 514/3/6 516/3/6
f 517/2/6 518/2/6 521/2/6
f 521/2/6 518/2/6 522/2/6
f 519/2/6 520/2/6 523/2/6
f 523/2/6 520/2/6 524/2/6
f 525/2/6 526/2/6 529/2/6
f 529/2/6 526/2/6 530/2/6
f 527/2/6 528/2/6 531/2/6
f 531/2/6 528/2/6 532/2/6
f 533/2/6 534/2/6 537/2/6
f 537/2/6 534/2/6 538/2/6
f 535/2/6 536/2/6 539/2/6
f 539/2/6 536/2/6 540/2/6
f 541/2/6 542/2/6 545/2/6
f 545/2/6 542/2/6 546/2/6
f 543/2/6 544/2/6 547/2/6
f 547/2/6 544/2/6 548/2/6
f 549/2/6 550/2/6 567/2/6
f 551/2/6 552/2/6 568/2/6
f 568/2/6 552/2/6 569/2/6
f 553/2/6 554/2/6 570/2/6
f 570/2/6 554/2/6 571/2/6
f 555/2/6 556/2/6 572/2/6
f 572/2/6 556/2/6 573/2/6
f 557/2/6 558/2/6 574/2/6
f 574/2/6 558/2/6 575/2/6
f 559/2/6 560/2/6 576/2/6
f 576/2/6 560/2/6 577/2/6
f 561/2/6 562/2/6 578/2/6
f 578/2/6 562/2/6 579/2/6
f 563/2/6 564/2/6 580/2/6
f 580/2/6 564/2/6 581/2/6
f 565/2/6 566/2/6 582/2/6
f 580/2/6 581/2/6 583/2/6
f 581/2/6 582/2/6 583/2/6
f 549/2/6 567/2/6 583/2/6
f 568/2/6 569/2/6 583/2/6
f 579/2/6 580/2/6 583/2/6
f 570/2/6 571/2/6 583/2/6
f 577/2/6 578/2/6 583/2/6
f 572/2/6 573/2/6 583/2/6
f 575/2/6 576/2/6 583/2/6
f 574/2/6 575/2/6 583/2/6
f 573/2/6 574/2/6 583/2/6
f 576/2/6 577/2/6 583/2/6
f 571/2/6 572/2/6 583/2/6
f 578/2/6 579/2/6 583/2/6
f 569/2/6 570/2/6 583/2/6
f 567/2/6 568/2/6 583/2/6
f 582/2/6 566/2/6 584/2/6
f 583/2/6 582/2/6 584/2/6
f 585/1/6 586/1/6 595/1/6
f 595/1/6 586/1/6 596/1/6
f 587/1/6 588/1/6 597/1/6
f 597/1/6 588/1/6 598/1/6
f 589/1/6 590/1/6 599/1/6
f 599/1/6 590/1/6 600/1/6
f 591/1/6 592/1/6 601/1/6
f 601/1/6 592/1/6 602/1/6
f 593/1/6 594/1/6 603/1/6
f 603/1/6 594/1/6 604/1/6
f 605/1/6 606/1/6 607/1/6
f 607/1/6 606/1/6 608/1/6
f 609/1/6 610/1/6 621/1/6
f 621/1/6 610/1/6 622/1/6
f 611/1/6 612/1/6 623/1/6
f 623/1/6 612/1/6 624/1/6
f 613/1/6 614/1/6 625/1/6
f 625/1/6 614/1/6 626/1/6
f 615/1/6 616/1/6 627/1/6
f 627/1/6 616/1/6 628/1/6
f 617/1/6 618/1/6 629/1/6
f 629/1/6 618/1/6 630/1/6
f 619/1/6 620/1/6 631/1/6
f 631/1/6 620/1/6 632/1/6
