# MagicaVoxel @ Ephtracy

# group
o 

# material
mtllib house6.mtl
usemtl palette

# normals
vn -1 0 0
vn 1 0 0
vn 0 0 1
vn 0 0 -1
vn 0 -1 0
vn 0 1 0

# texcoords
vt 0.177734 0.5
vt 0.220703 0.5

# verts
v -1.9 1 1.9
v -1.9 1 -1.9
v -1.9 1.1 1.9
v -1.9 1.1 -1.9
v -1.8 0 1.8
v -1.8 0 -1.9
v -1.8 0.1 1.8
v -1.8 0.1 -1.9
v -1.8 0.3 1.4
v -1.8 0.3 1.1
v -1.8 0.3 0.4
v -1.8 0.3 0.1
v -1.8 0.3 -0.6
v -1.8 0.3 -0.9
v -1.8 0.7 1.4
v -1.8 0.7 1.1
v -1.8 0.7 0.4
v -1.8 0.7 0.1
v -1.8 0.7 -0.6
v -1.8 0.7 -0.9
v -1.8 1 1.8
v -1.8 1 -1.9
v -1.8 1 -2
v -1.8 1.1 -1.9
v -1.8 1.1 -2
v -1.7 1.1 1.8
v -1.7 1.1 -1.9
v -1.7 1.2 1.8
v -1.7 1.2 -1.9
v -1.6 1.2 1.8
v -1.6 1.2 -1.9
v -1.6 1.3 1.8
v -1.6 1.3 -1.9
v -1.5 1.3 1.8
v -1.5 1.3 -1.9
v -1.5 1.4 1.8
v -1.5 1.4 -1.9
v -1.4 1.4 1.8
v -1.4 1.4 -1.9
v -1.4 1.5 1.8
v -1.4 1.5 -1.9
v -1.3 1.5 1.8
v -1.3 1.5 -1.9
v -1.3 1.6 1.8
v -1.3 1.6 -1.9
v -1.2 0.3 -1.8
v -1.2 0.3 -1.9
v -1.2 0.7 -1.8
v -1.2 0.7 -1.9
v -1.2 1.6 1.8
v -1.2 1.6 -1.9
v -1.2 1.7 1.8
v -1.2 1.7 -1.9
v -1.1 1.7 1.8
v -1.1 1.7 -1.9
v -1.1 1.8 1.8
v -1.1 1.8 -1.9
v -0.7 0.1 0.7
v -0.7 0.1 0.6
v -0.7 0.3 1.8
v -0.7 0.3 1.7
v -0.7 0.7 1.8
v -0.7 0.7 1.7
v -0.7 0.8 0.7
v -0.7 0.8 0.6
v -0.6 0.3 -1.8
v -0.6 0.3 -1.9
v -0.6 0.7 -1.8
v -0.6 0.7 -1.9
v -0.1 0.1 1.7
v -0.1 0.1 0.7
v -0.1 0.1 0.6
v -0.1 0.1 -1
v -0.1 0.1 -1.4
v -0.1 0.1 -1.8
v -0.1 0.3 1.1
v -0.1 0.3 0.8
v -0.1 0.3 0.3
v -0.1 0.3 0
v -0.1 0.7 1.1
v -0.1 0.7 0.8
v -0.1 0.7 0.3
v -0.1 0.7 0
v -0.1 0.8 -1
v -0.1 0.8 -1.4
v -0.1 1 1.7
v -0.1 1 0.7
v -0.1 1 0.6
v -0.1 1 -1.8
v 0.9 0.1 -0.5
v 0.9 0.1 -0.9
v 0.9 0.1 -1.5
v 0.9 0.1 -1.8
v 0.9 0.4 -0.4
v 0.9 0.4 -0.5
v 0.9 0.4 -0.9
v 0.9 0.4 -1.5
v 0.9 0.4 -1.8
v 0.9 0.4 -1.9
v 0.9 0.9 -0.4
v 0.9 0.9 -0.5
v 0.9 0.9 -1.8
v 0.9 0.9 -1.9
v 0.9 1 -0.5
v 0.9 1 -1.8
v -1.7 0.1 1.7
v -1.7 0.1 0.7
v -1.7 0.1 0.6
v -1.7 0.1 -1.8
v -1.7 0.3 1.4
v -1.7 0.3 1.1
v -1.7 0.3 0.4
v -1.7 0.3 0.1
v -1.7 0.3 -0.6
v -1.7 0.3 -0.9
v -1.7 0.7 1.4
v -1.7 0.7 1.1
v -1.7 0.7 0.4
v -1.7 0.7 0.1
v -1.7 0.7 -0.6
v -1.7 0.7 -0.9
v -1.7 1 1.7
v -1.7 1 0.7
v -1.7 1 0.6
v -1.7 1 -1.8
v -1.5 0.3 -1.8
v -1.5 0.3 -1.9
v -1.5 0.7 -1.8
v -1.5 0.7 -1.9
v -1.1 0.1 0.7
v -1.1 0.1 0.6
v -1.1 0.8 0.7
v -1.1 0.8 0.6
v -1 0.3 1.8
v -1 0.3 1.7
v -1 0.7 1.8
v -1 0.7 1.7
v -0.9 0.3 -1.8
v -0.9 0.3 -1.9
v -0.9 0.7 -1.8
v -0.9 0.7 -1.9
v -0.7 1.7 1.8
v -0.7 1.7 -0.4
v -0.7 1.8 1.8
v -0.7 1.8 -0.4
v -0.6 1.6 1.8
v -0.6 1.6 -0.4
v -0.6 1.7 1.8
v -0.6 1.7 -0.4
v -0.5 1.5 1.8
v -0.5 1.5 -0.4
v -0.5 1.6 1.8
v -0.5 1.6 -0.4
v -0.4 1.4 1.8
v -0.4 1.4 -0.4
v -0.4 1.5 1.8
v -0.4 1.5 -0.4
v -0.3 1.3 1.8
v -0.3 1.3 -0.4
v -0.3 1.4 1.8
v -0.3 1.4 -0.4
v -0.2 1.2 1.8
v -0.2 1.2 -0.4
v -0.2 1.3 1.8
v -0.2 1.3 -0.4
v -0.1 1.1 1.8
v -0.1 1.1 -0.4
v -0.1 1.2 1.8
v -0.1 1.2 -0.4
v 0 0 1.8
v 0 0 -0.4
v 0 0.1 1.8
v 0 0.1 -0.4
v 0 0.1 -0.5
v 0 0.1 -1
v 0 0.1 -1.4
v 0 0.1 -1.8
v 0 0.3 1.1
v 0 0.3 0.8
v 0 0.3 0.3
v 0 0.3 0
v 0 0.4 -0.4
v 0 0.4 -0.5
v 0 0.4 -1.8
v 0 0.4 -1.9
v 0 0.7 1.1
v 0 0.7 0.8
v 0 0.7 0.3
v 0 0.7 0
v 0 0.8 -1
v 0 0.8 -1.4
v 0 0.9 -0.4
v 0 0.9 -0.5
v 0 0.9 -1.8
v 0 0.9 -1.9
v 0 1 1.8
v 0 1 -0.4
v 0 1 -0.5
v 0 1 -1.8
v 0.1 1 1.9
v 0.1 1 -0.3
v 0.1 1.1 1.9
v 0.1 1.1 -0.3
v 0.3 1.7 -0.4
v 0.3 1.7 -1.9
v 0.3 1.8 -0.4
v 0.3 1.8 -1.9
v 0.4 1.6 -0.4
v 0.4 1.6 -1.9
v 0.4 1.7 -0.4
v 0.4 1.7 -1.9
v 0.5 1.5 -0.4
v 0.5 1.5 -1.9
v 0.5 1.6 -0.4
v 0.5 1.6 -1.9
v 0.6 1.4 -0.4
v 0.6 1.4 -1.9
v 0.6 1.5 -0.4
v 0.6 1.5 -1.9
v 0.7 1.3 -0.4
v 0.7 1.3 -1.9
v 0.7 1.4 -0.4
v 0.7 1.4 -1.9
v 0.8 1.2 -0.4
v 0.8 1.2 -1.9
v 0.8 1.3 -0.4
v 0.8 1.3 -1.9
v 0.9 1.1 -0.4
v 0.9 1.1 -1.9
v 0.9 1.2 -0.4
v 0.9 1.2 -1.9
v 1 0 -0.4
v 1 0 -1.9
v 1 0.1 -0.9
v 1 0.1 -1.5
v 1 0.4 -0.4
v 1 0.4 -0.5
v 1 0.4 -0.9
v 1 0.4 -1.5
v 1 0.4 -1.8
v 1 0.4 -1.9
v 1 0.9 -0.5
v 1 0.9 -1.8
v 1 1 -0.4
v 1 1 -1.9
v 1.1 1 -0.3
v 1.1 1 -2
v 1.1 1.1 -0.3
v 1.1 1.1 -2
v -1.9 1 1.9
v -1.9 1.1 1.9
v 0.1 1 1.9
v 0.1 1.1 1.9
v -1.8 0 1.8
v -1.8 0.1 1.8
v -1.8 1 1.8
v -1.7 1.1 1.8
v -1.7 1.2 1.8
v -1.6 1.2 1.8
v -1.6 1.3 1.8
v -1.5 1.3 1.8
v -1.5 1.4 1.8
v -1.4 1.4 1.8
v -1.4 1.5 1.8
v -1.3 1.5 1.8
v -1.3 1.6 1.8
v -1.2 1.6 1.8
v -1.2 1.7 1.8
v -1.1 1.7 1.8
v -1.1 1.8 1.8
v -1 0.3 1.8
v -1 0.7 1.8
v -0.7 0.3 1.8
v -0.7 0.7 1.8
v -0.7 1.7 1.8
v -0.7 1.8 1.8
v -0.6 1.6 1.8
v -0.6 1.7 1.8
v -0.5 1.5 1.8
v -0.5 1.6 1.8
v -0.4 1.4 1.8
v -0.4 1.5 1.8
v -0.3 1.3 1.8
v -0.3 1.4 1.8
v -0.2 1.2 1.8
v -0.2 1.3 1.8
v -0.1 1.1 1.8
v -0.1 1.2 1.8
v 0 0 1.8
v 0 0.1 1.8
v 0 1 1.8
v -1.8 0.3 1.1
v -1.8 0.7 1.1
v -1.7 0.3 1.1
v -1.7 0.7 1.1
v -0.1 0.3 0.8
v -0.1 0.7 0.8
v 0 0.3 0.8
v 0 0.7 0.8
v -1.7 0.1 0.7
v -1.7 1 0.7
v -1.1 0.1 0.7
v -1.1 0.8 0.7
v -0.7 0.1 0.7
v -0.7 0.8 0.7
v -0.1 0.1 0.7
v -0.1 1 0.7
v -1.8 0.3 0.1
v -1.8 0.7 0.1
v -1.7 0.3 0.1
v -1.7 0.7 0.1
v -0.1 0.3 0
v -0.1 0.7 0
v 0 0.3 0
v 0 0.7 0
v 0.1 1 -0.3
v 0.1 1.1 -0.3
v 1.1 1 -0.3
v 1.1 1.1 -0.3
v -0.7 1.7 -0.4
v -0.7 1.8 -0.4
v -0.6 1.6 -0.4
v -0.6 1.7 -0.4
v -0.5 1.5 -0.4
v -0.5 1.6 -0.4
v -0.4 1.4 -0.4
v -0.4 1.5 -0.4
v -0.3 1.3 -0.4
v -0.3 1.4 -0.4
v -0.2 1.2 -0.4
v -0.2 1.3 -0.4
v -0.1 1.1 -0.4
v -0.1 1.2 -0.4
v 0 0 -0.4
v 0 0.1 -0.4
v 0 0.4 -0.4
v 0 0.9 -0.4
v 0 1 -0.4
v 0.3 1.7 -0.4
v 0.3 1.8 -0.4
v 0.4 1.6 -0.4
v 0.4 1.7 -0.4
v 0.5 1.5 -0.4
v 0.5 1.6 -0.4
v 0.6 1.4 -0.4
v 0.6 1.5 -0.4
v 0.7 1.3 -0.4
v 0.7 1.4 -0.4
v 0.8 1.2 -0.4
v 0.8 1.3 -0.4
v 0.9 0.4 -0.4
v 0.9 0.9 -0.4
v 0.9 1.1 -0.4
v 0.9 1.2 -0.4
v 1 0 -0.4
v 1 0.4 -0.4
v 1 1 -0.4
v -1.8 0.3 -0.9
v -1.8 0.7 -0.9
v -1.7 0.3 -0.9
v -1.7 0.7 -0.9
v -0.1 0.1 -1.4
v -0.1 0.8 -1.4
v 0 0.1 -1.4
v 0 0.8 -1.4
v 0.9 0.1 -1.5
v 0.9 0.4 -1.5
v 1 0.1 -1.5
v 1 0.4 -1.5
v -1.7 0.1 -1.8
v -1.7 1 -1.8
v -1.5 0.3 -1.8
v -1.5 0.7 -1.8
v -1.2 0.3 -1.8
v -1.2 0.7 -1.8
v -0.9 0.3 -1.8
v -0.9 0.7 -1.8
v -0.6 0.3 -1.8
v -0.6 0.7 -1.8
v -0.1 0.1 -1.8
v -0.1 1 -1.8
v 0 0.1 -1.8
v 0 0.4 -1.8
v 0 0.9 -1.8
v 0 1 -1.8
v 0.9 0.1 -1.8
v 0.9 0.4 -1.8
v 0.9 0.9 -1.8
v 0.9 1 -1.8
v 1 0.4 -1.8
v 1 0.9 -1.8
v -1.7 0.1 1.7
v -1.7 1 1.7
v -1 0.3 1.7
v -1 0.7 1.7
v -0.7 0.3 1.7
v -0.7 0.7 1.7
v -0.1 0.1 1.7
v -0.1 1 1.7
v -1.8 0.3 1.4
v -1.8 0.7 1.4
v -1.7 0.3 1.4
v -1.7 0.7 1.4
v -0.1 0.3 1.1
v -0.1 0.7 1.1
v 0 0.3 1.1
v 0 0.7 1.1
v -1.7 0.1 0.6
v -1.7 1 0.6
v -1.1 0.1 0.6
v -1.1 0.8 0.6
v -0.7 0.1 0.6
v -0.7 0.8 0.6
v -0.1 0.1 0.6
v -0.1 1 0.6
v -1.8 0.3 0.4
v -1.8 0.7 0.4
v -1.7 0.3 0.4
v -1.7 0.7 0.4
v -0.1 0.3 0.3
v -0.1 0.7 0.3
v 0 0.3 0.3
v 0 0.7 0.3
v 0 0.1 -0.5
v 0 0.4 -0.5
v 0 0.9 -0.5
v 0 1 -0.5
v 0.9 0.1 -0.5
v 0.9 0.4 -0.5
v 0.9 0.9 -0.5
v 0.9 1 -0.5
v 1 0.4 -0.5
v 1 0.9 -0.5
v -1.8 0.3 -0.6
v -1.8 0.7 -0.6
v -1.7 0.3 -0.6
v -1.7 0.7 -0.6
v 0.9 0.1 -0.9
v 0.9 0.4 -0.9
v 1 0.1 -0.9
v 1 0.4 -0.9
v -0.1 0.1 -1
v -0.1 0.8 -1
v 0 0.1 -1
v 0 0.8 -1
v -1.9 1 -1.9
v -1.9 1.1 -1.9
v -1.8 0 -1.9
v -1.8 0.1 -1.9
v -1.8 1 -1.9
v -1.8 1.1 -1.9
v -1.7 1.1 -1.9
v -1.7 1.2 -1.9
v -1.6 1.2 -1.9
v -1.6 1.3 -1.9
v -1.5 0.3 -1.9
v -1.5 0.7 -1.9
v -1.5 1.3 -1.9
v -1.5 1.4 -1.9
v -1.4 1.4 -1.9
v -1.4 1.5 -1.9
v -1.3 1.5 -1.9
v -1.3 1.6 -1.9
v -1.2 0.3 -1.9
v -1.2 0.7 -1.9
v -1.2 1.6 -1.9
v -1.2 1.7 -1.9
v -1.1 1.7 -1.9
v -1.1 1.8 -1.9
v -0.9 0.3 -1.9
v -0.9 0.7 -1.9
v -0.6 0.3 -1.9
v -0.6 0.7 -1.9
v 0 0.1 -1.9
v 0 0.4 -1.9
v 0 0.9 -1.9
v 0.3 1.7 -1.9
v 0.3 1.8 -1.9
v 0.4 1.6 -1.9
v 0.4 1.7 -1.9
v 0.5 1.5 -1.9
v 0.5 1.6 -1.9
v 0.6 1.4 -1.9
v 0.6 1.5 -1.9
v 0.7 1.3 -1.9
v 0.7 1.4 -1.9
v 0.8 1.2 -1.9
v 0.8 1.3 -1.9
v 0.9 0.4 -1.9
v 0.9 0.9 -1.9
v 0.9 1.1 -1.9
v 0.9 1.2 -1.9
v 1 0 -1.9
v 1 0.4 -1.9
v 1 1 -1.9
v -1.8 1 -2
v -1.8 1.1 -2
v 1.1 1 -2
v 1.1 1.1 -2
v -1.8 0 1.8
v 0 0 1.8
v 0 0 -0.4
v 1 0 -0.4
v -1.8 0 -1.9
v 1 0 -1.9
v -1 0.7 1.8
v -0.7 0.7 1.8
v -1 0.7 1.7
v -0.7 0.7 1.7
v -1.8 0.7 1.4
v -1.7 0.7 1.4
v -1.8 0.7 1.1
v -1.7 0.7 1.1
v -0.1 0.7 1.1
v 0 0.7 1.1
v -0.1 0.7 0.8
v 0 0.7 0.8
v -1.8 0.7 0.4
v -1.7 0.7 0.4
v -0.1 0.7 0.3
v 0 0.7 0.3
v -1.8 0.7 0.1
v -1.7 0.7 0.1
v -0.1 0.7 0
v 0 0.7 0
v -1.8 0.7 -0.6
v -1.7 0.7 -0.6
v -1.8 0.7 -0.9
v -1.7 0.7 -0.9
v -1.5 0.7 -1.8
v -1.2 0.7 -1.8
v -0.9 0.7 -1.8
v -0.6 0.7 -1.8
v -1.5 0.7 -1.9
v -1.2 0.7 -1.9
v -0.9 0.7 -1.9
v -0.6 0.7 -1.9
v -1.1 0.8 0.7
v -0.7 0.8 0.7
v -1.1 0.8 0.6
v -0.7 0.8 0.6
v -0.1 0.8 -1
v 0 0.8 -1
v -0.1 0.8 -1.4
v 0 0.8 -1.4
v 0 0.9 -0.4
v 0.9 0.9 -0.4
v 0 0.9 -0.5
v 0.9 0.9 -0.5
v 1 0.9 -0.5
v 0 0.9 -1.8
v 0.9 0.9 -1.8
v 1 0.9 -1.8
v 0 0.9 -1.9
v 0.9 0.9 -1.9
v -1.9 1 1.9
v 0.1 1 1.9
v -1.8 1 1.8
v 0 1 1.8
v -1.7 1 1.7
v -0.1 1 1.7
v -1.7 1 0.7
v -0.1 1 0.7
v -1.7 1 0.6
v -0.1 1 0.6
v 0.1 1 -0.3
v 1.1 1 -0.3
v 0 1 -0.4
v 1 1 -0.4
v 0 1 -0.5
v 0.9 1 -0.5
v -1.7 1 -1.8
v -0.1 1 -1.8
v 0 1 -1.8
v 0.9 1 -1.8
v -1.9 1 -1.9
v -1.8 1 -1.9
v 1 1 -1.9
v -1.8 1 -2
v 1.1 1 -2
v -1.7 0.1 1.7
v -0.1 0.1 1.7
v -1.7 0.1 0.7
v -1.1 0.1 0.7
v -0.7 0.1 0.7
v -0.1 0.1 0.7
v -1.7 0.1 0.6
v -1.1 0.1 0.6
v -0.7 0.1 0.6
v -0.1 0.1 0.6
v 0 0.1 -0.5
v 0.9 0.1 -0.5
v 0.9 0.1 -0.9
v 1 0.1 -0.9
v -0.1 0.1 -1
v 0 0.1 -1
v -0.1 0.1 -1.4
v 0 0.1 -1.4
v 0.9 0.1 -1.5
v 1 0.1 -1.5
v -1.7 0.1 -1.8
v -0.1 0.1 -1.8
v 0 0.1 -1.8
v 0.9 0.1 -1.8
v -1 0.3 1.8
v -0.7 0.3 1.8
v -1 0.3 1.7
v -0.7 0.3 1.7
v -1.8 0.3 1.4
v -1.7 0.3 1.4
v -1.8 0.3 1.1
v -1.7 0.3 1.1
v -0.1 0.3 1.1
v 0 0.3 1.1
v -0.1 0.3 0.8
v 0 0.3 0.8
v -1.8 0.3 0.4
v -1.7 0.3 0.4
v -0.1 0.3 0.3
v 0 0.3 0.3
v -1.8 0.3 0.1
v -1.7 0.3 0.1
v -0.1 0.3 0
v 0 0.3 0
v -1.8 0.3 -0.6
v -1.7 0.3 -0.6
v -1.8 0.3 -0.9
v -1.7 0.3 -0.9
v -1.5 0.3 -1.8
v -1.2 0.3 -1.8
v -0.9 0.3 -1.8
v -0.6 0.3 -1.8
v -1.5 0.3 -1.9
v -1.2 0.3 -1.9
v -0.9 0.3 -1.9
v -0.6 0.3 -1.9
v 0 0.4 -0.4
v 0.9 0.4 -0.4
v 0 0.4 -0.5
v 0.9 0.4 -0.5
v 1 0.4 -0.5
v 0.9 0.4 -0.9
v 1 0.4 -0.9
v 0.9 0.4 -1.5
v 1 0.4 -1.5
v 0 0.4 -1.8
v 0.9 0.4 -1.8
v 1 0.4 -1.8
v 0 0.4 -1.9
v 0.9 0.4 -1.9
v -1.9 1.1 1.9
v 0.1 1.1 1.9
v -1.7 1.1 1.8
v -0.1 1.1 1.8
v 0.1 1.1 -0.3
v 1.1 1.1 -0.3
v -0.1 1.1 -0.4
v 0.9 1.1 -0.4
v -1.9 1.1 -1.9
v -1.8 1.1 -1.9
v -1.7 1.1 -1.9
v 0.9 1.1 -1.9
v -1.8 1.1 -2
v 1.1 1.1 -2
v -1.7 1.2 1.8
v -1.6 1.2 1.8
v -0.2 1.2 1.8
v -0.1 1.2 1.8
v -0.2 1.2 -0.4
v -0.1 1.2 -0.4
v 0.8 1.2 -0.4
v 0.9 1.2 -0.4
v -1.7 1.2 -1.9
v -1.6 1.2 -1.9
v 0.8 1.2 -1.9
v 0.9 1.2 -1.9
v -1.6 1.3 1.8
v -1.5 1.3 1.8
v -0.3 1.3 1.8
v -0.2 1.3 1.8
v -0.3 1.3 -0.4
v -0.2 1.3 -0.4
v 0.7 1.3 -0.4
v 0.8 1.3 -0.4
v -1.6 1.3 -1.9
v -1.5 1.3 -1.9
v 0.7 1.3 -1.9
v 0.8 1.3 -1.9
v -1.5 1.4 1.8
v -1.4 1.4 1.8
v -0.4 1.4 1.8
v -0.3 1.4 1.8
v -0.4 1.4 -0.4
v -0.3 1.4 -0.4
v 0.6 1.4 -0.4
v 0.7 1.4 -0.4
v -1.5 1.4 -1.9
v -1.4 1.4 -1.9
v 0.6 1.4 -1.9
v 0.7 1.4 -1.9
v -1.4 1.5 1.8
v -1.3 1.5 1.8
v -0.5 1.5 1.8
v -0.4 1.5 1.8
v -0.5 1.5 -0.4
v -0.4 1.5 -0.4
v 0.5 1.5 -0.4
v 0.6 1.5 -0.4
v -1.4 1.5 -1.9
v -1.3 1.5 -1.9
v 0.5 1.5 -1.9
v 0.6 1.5 -1.9
v -1.3 1.6 1.8
v -1.2 1.6 1.8
v -0.6 1.6 1.8
v -0.5 1.6 1.8
v -0.6 1.6 -0.4
v -0.5 1.6 -0.4
v 0.4 1.6 -0.4
v 0.5 1.6 -0.4
v -1.3 1.6 -1.9
v -1.2 1.6 -1.9
v 0.4 1.6 -1.9
v 0.5 1.6 -1.9
v -1.2 1.7 1.8
v -1.1 1.7 1.8
v -0.7 1.7 1.8
v -0.6 1.7 1.8
v -0.7 1.7 -0.4
v -0.6 1.7 -0.4
v 0.3 1.7 -0.4
v 0.4 1.7 -0.4
v -1.2 1.7 -1.9
v -1.1 1.7 -1.9
v 0.3 1.7 -1.9
v 0.4 1.7 -1.9
v -1.1 1.8 1.8
v -0.7 1.8 1.8
v -0.7 1.8 -0.4
v 0.3 1.8 -0.4
v -1.1 1.8 -1.9
v 0.3 1.8 -1.9

# faces
f 3/1/1 2/1/1 1/1/1
f 4/1/1 2/1/1 3/1/1
f 7/1/1 6/1/1 5/1/1
f 8/1/1 6/1/1 7/1/1
f 9/2/1 8/2/1 7/2/1
f 10/2/1 8/2/1 9/2/1
f 11/2/1 8/2/1 10/2/1
f 12/2/1 8/2/1 11/2/1
f 13/2/1 8/2/1 12/2/1
f 14/2/1 8/2/1 13/2/1
f 15/2/1 9/2/1 7/2/1
f 16/2/1 11/2/1 10/2/1
f 17/2/1 11/2/1 16/2/1
f 18/2/1 13/2/1 12/2/1
f 19/2/1 13/2/1 18/2/1
f 20/2/1 8/2/1 14/2/1
f 21/2/1 19/2/1 18/2/1
f 21/2/1 20/2/1 19/2/1
f 21/2/1 17/2/1 16/2/1
f 21/2/1 15/2/1 7/2/1
f 21/2/1 18/2/1 17/2/1
f 21/2/1 16/2/1 15/2/1
f 22/2/1 8/2/1 20/2/1
f 22/2/1 20/2/1 21/2/1
f 24/1/1 23/1/1 22/1/1
f 25/1/1 23/1/1 24/1/1
f 28/1/1 27/1/1 26/1/1
f 29/1/1 27/1/1 28/1/1
f 32/1/1 31/1/1 30/1/1
f 33/1/1 31/1/1 32/1/1
f 36/1/1 35/1/1 34/1/1
f 37/1/1 35/1/1 36/1/1
f 40/1/1 39/1/1 38/1/1
f 41/1/1 39/1/1 40/1/1
f 44/1/1 43/1/1 42/1/1
f 45/1/1 43/1/1 44/1/1
f 48/2/1 47/2/1 46/2/1
f 49/2/1 47/2/1 48/2/1
f 52/1/1 51/1/1 50/1/1
f 53/1/1 51/1/1 52/1/1
f 56/1/1 55/1/1 54/1/1
f 57/1/1 55/1/1 56/1/1
f 62/2/1 61/2/1 60/2/1
f 63/2/1 61/2/1 62/2/1
f 64/2/1 59/2/1 58/2/1
f 65/2/1 59/2/1 64/2/1
f 68/2/1 67/2/1 66/2/1
f 69/2/1 67/2/1 68/2/1
f 76/2/1 71/2/1 70/2/1
f 77/2/1 71/2/1 76/2/1
f 78/2/1 73/2/1 72/2/1
f 79/2/1 73/2/1 78/2/1
f 80/2/1 76/2/1 70/2/1
f 81/2/1 71/2/1 77/2/1
f 82/2/1 78/2/1 72/2/1
f 83/2/1 73/2/1 79/2/1
f 84/2/1 73/2/1 83/2/1
f 84/2/1 83/2/1 82/2/1
f 85/2/1 75/2/1 74/2/1
f 86/2/1 80/2/1 70/2/1
f 86/2/1 81/2/1 80/2/1
f 87/2/1 71/2/1 81/2/1
f 87/2/1 81/2/1 86/2/1
f 88/2/1 84/2/1 82/2/1
f 88/2/1 85/2/1 84/2/1
f 88/2/1 82/2/1 72/2/1
f 89/2/1 75/2/1 85/2/1
f 89/2/1 85/2/1 88/2/1
f 95/1/1 91/1/1 90/1/1
f 96/1/1 91/1/1 95/1/1
f 97/1/1 93/1/1 92/1/1
f 98/1/1 93/1/1 97/1/1
f 100/2/1 95/2/1 94/2/1
f 101/2/1 95/2/1 100/2/1
f 102/2/1 99/2/1 98/2/1
f 103/2/1 99/2/1 102/2/1
f 104/2/1 102/2/1 101/2/1
f 105/2/1 102/2/1 104/2/1
f 106/2/2 107/2/2 110/2/2
f 110/2/2 107/2/2 111/2/2
f 108/2/2 109/2/2 112/2/2
f 112/2/2 109/2/2 113/2/2
f 113/2/2 109/2/2 114/2/2
f 114/2/2 109/2/2 115/2/2
f 106/2/2 110/2/2 116/2/2
f 111/2/2 107/2/2 117/2/2
f 108/2/2 112/2/2 118/2/2
f 113/2/2 114/2/2 119/2/2
f 119/2/2 114/2/2 120/2/2
f 115/2/2 109/2/2 121/2/2
f 106/2/2 116/2/2 122/2/2
f 116/2/2 117/2/2 122/2/2
f 117/2/2 107/2/2 123/2/2
f 122/2/2 117/2/2 123/2/2
f 120/2/2 121/2/2 124/2/2
f 119/2/2 120/2/2 124/2/2
f 108/2/2 118/2/2 124/2/2
f 118/2/2 119/2/2 124/2/2
f 121/2/2 109/2/2 125/2/2
f 124/2/2 121/2/2 125/2/2
f 126/2/2 127/2/2 128/2/2
f 128/2/2 127/2/2 129/2/2
f 130/2/2 131/2/2 132/2/2
f 132/2/2 131/2/2 133/2/2
f 134/2/2 135/2/2 136/2/2
f 136/2/2 135/2/2 137/2/2
f 138/2/2 139/2/2 140/2/2
f 140/2/2 139/2/2 141/2/2
f 142/1/2 143/1/2 144/1/2
f 144/1/2 143/1/2 145/1/2
f 146/1/2 147/1/2 148/1/2
f 148/1/2 147/1/2 149/1/2
f 150/1/2 151/1/2 152/1/2
f 152/1/2 151/1/2 153/1/2
f 154/1/2 155/1/2 156/1/2
f 156/1/2 155/1/2 157/1/2
f 158/1/2 159/1/2 160/1/2
f 160/1/2 159/1/2 161/1/2
f 162/1/2 163/1/2 164/1/2
f 164/1/2 163/1/2 165/1/2
f 166/1/2 167/1/2 168/1/2
f 168/1/2 167/1/2 169/1/2
f 170/1/2 171/1/2 172/1/2
f 172/1/2 171/1/2 173/1/2
f 172/2/2 173/2/2 178/2/2
f 178/2/2 173/2/2 179/2/2
f 179/2/2 173/2/2 180/2/2
f 180/2/2 173/2/2 181/2/2
f 181/2/2 173/2/2 182/2/2
f 174/2/2 175/2/2 183/2/2
f 176/2/2 177/2/2 184/2/2
f 172/2/2 178/2/2 186/2/2
f 179/2/2 180/2/2 187/2/2
f 187/2/2 180/2/2 188/2/2
f 182/2/2 183/2/2 189/2/2
f 181/2/2 182/2/2 189/2/2
f 187/2/2 188/2/2 190/2/2
f 188/2/2 189/2/2 190/2/2
f 189/2/2 183/2/2 190/2/2
f 186/2/2 187/2/2 190/2/2
f 183/2/2 175/2/2 190/2/2
f 184/2/2 185/2/2 191/2/2
f 176/2/2 184/2/2 191/2/2
f 186/2/2 190/2/2 192/2/2
f 190/2/2 191/2/2 192/2/2
f 192/2/2 191/2/2 193/2/2
f 191/2/2 185/2/2 194/2/2
f 193/2/2 191/2/2 194/2/2
f 194/2/2 185/2/2 195/2/2
f 172/2/2 186/2/2 196/2/2
f 186/2/2 192/2/2 196/2/2
f 196/2/2 192/2/2 197/2/2
f 193/2/2 194/2/2 198/2/2
f 198/2/2 194/2/2 199/2/2
f 200/1/2 201/1/2 202/1/2
f 202/1/2 201/1/2 203/1/2
f 204/1/2 205/1/2 206/1/2
f 206/1/2 205/1/2 207/1/2
f 208/1/2 209/1/2 210/1/2
f 210/1/2 209/1/2 211/1/2
f 212/1/2 213/1/2 214/1/2
f 214/1/2 213/1/2 215/1/2
f 216/1/2 217/1/2 218/1/2
f 218/1/2 217/1/2 219/1/2
f 220/1/2 221/1/2 222/1/2
f 222/1/2 221/1/2 223/1/2
f 224/1/2 225/1/2 226/1/2
f 226/1/2 225/1/2 227/1/2
f 228/1/2 229/1/2 230/1/2
f 230/1/2 229/1/2 231/1/2
f 232/1/2 233/1/2 234/1/2
f 234/1/2 233/1/2 235/1/2
f 232/1/2 234/1/2 236/1/2
f 236/1/2 234/1/2 237/1/2
f 237/1/2 234/1/2 238/1/2
f 235/1/2 233/1/2 239/1/2
f 239/1/2 233/1/2 240/1/2
f 240/1/2 233/1/2 241/1/2
f 236/2/2 237/2/2 242/2/2
f 240/2/2 241/2/2 243/2/2
f 236/2/2 242/2/2 244/2/2
f 242/2/2 243/2/2 244/2/2
f 243/2/2 241/2/2 245/2/2
f 244/2/2 243/2/2 245/2/2
f 246/1/2 247/1/2 248/1/2
f 248/1/2 247/1/2 249/1/2
f 252/1/3 251/1/3 250/1/3
f 253/1/3 251/1/3 252/1/3
f 259/1/3 258/1/3 257/1/3
f 261/1/3 260/1/3 259/1/3
f 263/1/3 262/1/3 261/1/3
f 265/1/3 264/1/3 263/1/3
f 267/1/3 266/1/3 265/1/3
f 269/1/3 268/1/3 267/1/3
f 271/2/3 256/2/3 255/2/3
f 272/2/3 256/2/3 271/2/3
f 273/2/3 271/2/3 255/2/3
f 274/2/3 256/2/3 272/2/3
f 275/1/3 270/1/3 269/1/3
f 275/1/3 269/1/3 267/1/3
f 276/1/3 270/1/3 275/1/3
f 277/1/3 267/1/3 265/1/3
f 277/1/3 275/1/3 267/1/3
f 278/1/3 275/1/3 277/1/3
f 279/1/3 265/1/3 263/1/3
f 279/1/3 277/1/3 265/1/3
f 280/1/3 277/1/3 279/1/3
f 281/1/3 263/1/3 261/1/3
f 281/1/3 279/1/3 263/1/3
f 282/1/3 279/1/3 281/1/3
f 283/1/3 261/1/3 259/1/3
f 283/1/3 281/1/3 261/1/3
f 284/1/3 281/1/3 283/1/3
f 285/1/3 259/1/3 257/1/3
f 285/1/3 283/1/3 259/1/3
f 286/1/3 283/1/3 285/1/3
f 287/1/3 285/1/3 257/1/3
f 288/1/3 285/1/3 287/1/3
f 289/1/3 255/1/3 254/1/3
f 290/2/3 274/2/3 273/2/3
f 290/1/3 255/1/3 289/1/3
f 290/2/3 273/2/3 255/2/3
f 291/2/3 256/2/3 274/2/3
f 291/2/3 274/2/3 290/2/3
f 294/2/3 293/2/3 292/2/3
f 295/2/3 293/2/3 294/2/3
f 298/2/3 297/2/3 296/2/3
f 299/2/3 297/2/3 298/2/3
f 302/2/3 301/2/3 300/2/3
f 303/2/3 301/2/3 302/2/3
f 305/2/3 301/2/3 303/2/3
f 306/2/3 305/2/3 304/2/3
f 307/2/3 301/2/3 305/2/3
f 307/2/3 305/2/3 306/2/3
f 310/2/3 309/2/3 308/2/3
f 311/2/3 309/2/3 310/2/3
f 314/2/3 313/2/3 312/2/3
f 315/2/3 313/2/3 314/2/3
f 318/1/3 317/1/3 316/1/3
f 319/1/3 317/1/3 318/1/3
f 323/1/3 321/1/3 320/1/3
f 325/1/3 323/1/3 322/1/3
f 327/1/3 325/1/3 324/1/3
f 329/1/3 327/1/3 326/1/3
f 331/1/3 329/1/3 328/1/3
f 333/1/3 331/1/3 330/1/3
f 339/1/3 321/1/3 323/1/3
f 339/1/3 323/1/3 325/1/3
f 339/1/3 325/1/3 327/1/3
f 339/1/3 327/1/3 329/1/3
f 339/1/3 333/1/3 332/1/3
f 339/1/3 331/1/3 333/1/3
f 339/1/3 329/1/3 331/1/3
f 340/1/3 321/1/3 339/1/3
f 341/1/3 339/1/3 332/1/3
f 342/1/3 339/1/3 341/1/3
f 343/1/3 341/1/3 332/1/3
f 344/1/3 341/1/3 343/1/3
f 345/1/3 343/1/3 332/1/3
f 346/1/3 343/1/3 345/1/3
f 347/1/3 345/1/3 332/1/3
f 348/1/3 345/1/3 347/1/3
f 349/1/3 347/1/3 332/1/3
f 350/1/3 347/1/3 349/1/3
f 351/1/3 336/1/3 335/1/3
f 351/1/3 335/1/3 334/1/3
f 352/2/3 338/2/3 337/2/3
f 353/1/3 349/1/3 332/1/3
f 354/1/3 349/1/3 353/1/3
f 355/1/3 351/1/3 334/1/3
f 356/2/3 352/2/3 351/2/3
f 356/1/3 351/1/3 355/1/3
f 357/2/3 338/2/3 352/2/3
f 357/2/3 352/2/3 356/2/3
f 360/2/3 359/2/3 358/2/3
f 361/2/3 359/2/3 360/2/3
f 364/2/3 363/2/3 362/2/3
f 365/2/3 363/2/3 364/2/3
f 368/1/3 367/1/3 366/1/3
f 369/1/3 367/1/3 368/1/3
f 372/2/3 371/2/3 370/2/3
f 373/2/3 371/2/3 372/2/3
f 374/2/3 372/2/3 370/2/3
f 375/2/3 371/2/3 373/2/3
f 376/2/3 374/2/3 370/2/3
f 376/2/3 375/2/3 374/2/3
f 377/2/3 371/2/3 375/2/3
f 377/2/3 375/2/3 376/2/3
f 378/2/3 376/2/3 370/2/3
f 379/2/3 371/2/3 377/2/3
f 380/2/3 378/2/3 370/2/3
f 380/2/3 379/2/3 378/2/3
f 381/2/3 371/2/3 379/2/3
f 381/2/3 379/2/3 380/2/3
f 386/1/3 383/1/3 382/1/3
f 387/1/3 383/1/3 386/1/3
f 388/2/3 385/2/3 384/2/3
f 389/2/3 385/2/3 388/2/3
f 390/2/3 388/2/3 387/2/3
f 391/2/3 388/2/3 390/2/3
f 392/2/4 393/2/4 394/2/4
f 394/2/4 393/2/4 395/2/4
f 392/2/4 394/2/4 396/2/4
f 395/2/4 393/2/4 397/2/4
f 392/2/4 396/2/4 398/2/4
f 396/2/4 397/2/4 398/2/4
f 397/2/4 393/2/4 399/2/4
f 398/2/4 397/2/4 399/2/4
f 400/2/4 401/2/4 402/2/4
f 402/2/4 401/2/4 403/2/4
f 404/2/4 405/2/4 406/2/4
f 406/2/4 405/2/4 407/2/4
f 408/2/4 409/2/4 410/2/4
f 410/2/4 409/2/4 411/2/4
f 411/2/4 409/2/4 413/2/4
f 412/2/4 413/2/4 414/2/4
f 413/2/4 409/2/4 415/2/4
f 414/2/4 413/2/4 415/2/4
f 416/2/4 417/2/4 418/2/4
f 418/2/4 417/2/4 419/2/4
f 420/2/4 421/2/4 422/2/4
f 422/2/4 421/2/4 423/2/4
f 424/1/4 425/1/4 428/1/4
f 428/1/4 425/1/4 429/1/4
f 426/2/4 427/2/4 430/2/4
f 430/2/4 427/2/4 431/2/4
f 429/2/4 430/2/4 432/2/4
f 432/2/4 430/2/4 433/2/4
f 434/2/4 435/2/4 436/2/4
f 436/2/4 435/2/4 437/2/4
f 438/1/4 439/1/4 440/1/4
f 440/1/4 439/1/4 441/1/4
f 442/2/4 443/2/4 444/2/4
f 444/2/4 443/2/4 445/2/4
f 446/1/4 447/1/4 450/1/4
f 450/1/4 447/1/4 451/1/4
f 452/1/4 453/1/4 454/1/4
f 449/2/4 450/2/4 456/2/4
f 456/2/4 450/2/4 457/2/4
f 454/1/4 455/1/4 458/1/4
f 458/1/4 459/1/4 460/1/4
f 460/1/4 461/1/4 462/1/4
f 449/2/4 456/2/4 464/2/4
f 457/2/4 450/2/4 465/2/4
f 462/1/4 463/1/4 466/1/4
f 466/1/4 467/1/4 468/1/4
f 449/2/4 464/2/4 470/2/4
f 464/2/4 465/2/4 470/2/4
f 465/2/4 450/2/4 471/2/4
f 470/2/4 465/2/4 471/2/4
f 449/2/4 470/2/4 472/2/4
f 471/2/4 450/2/4 473/2/4
f 448/1/4 449/1/4 474/1/4
f 472/2/4 473/2/4 474/2/4
f 449/2/4 472/2/4 474/2/4
f 474/2/4 473/2/4 475/2/4
f 473/2/4 450/2/4 476/2/4
f 475/2/4 473/2/4 476/2/4
f 468/1/4 469/1/4 477/1/4
f 466/1/4 468/1/4 477/1/4
f 477/1/4 469/1/4 478/1/4
f 462/1/4 466/1/4 479/1/4
f 466/1/4 477/1/4 479/1/4
f 479/1/4 477/1/4 480/1/4
f 460/1/4 462/1/4 481/1/4
f 462/1/4 479/1/4 481/1/4
f 481/1/4 479/1/4 482/1/4
f 458/1/4 460/1/4 483/1/4
f 460/1/4 481/1/4 483/1/4
f 483/1/4 481/1/4 484/1/4
f 454/1/4 458/1/4 485/1/4
f 458/1/4 483/1/4 485/1/4
f 485/1/4 483/1/4 486/1/4
f 452/1/4 454/1/4 487/1/4
f 454/1/4 485/1/4 487/1/4
f 487/1/4 485/1/4 488/1/4
f 474/1/4 475/1/4 489/1/4
f 476/2/4 450/2/4 490/2/4
f 452/1/4 487/1/4 491/1/4
f 491/1/4 487/1/4 492/1/4
f 474/1/4 489/1/4 493/1/4
f 448/1/4 474/1/4 493/1/4
f 489/2/4 490/2/4 494/2/4
f 493/1/4 489/1/4 494/1/4
f 490/2/4 450/2/4 495/2/4
f 494/2/4 490/2/4 495/2/4
f 496/1/4 497/1/4 498/1/4
f 498/1/4 497/1/4 499/1/4
f 502/1/5 501/1/5 500/1/5
f 504/1/5 502/1/5 500/1/5
f 504/1/5 503/1/5 502/1/5
f 505/1/5 503/1/5 504/1/5
f 508/2/5 507/2/5 506/2/5
f 509/2/5 507/2/5 508/2/5
f 512/2/5 511/2/5 510/2/5
f 513/2/5 511/2/5 512/2/5
f 516/2/5 515/2/5 514/2/5
f 517/2/5 515/2/5 516/2/5
f 522/2/5 519/2/5 518/2/5
f 523/2/5 519/2/5 522/2/5
f 524/2/5 521/2/5 520/2/5
f 525/2/5 521/2/5 524/2/5
f 528/2/5 527/2/5 526/2/5
f 529/2/5 527/2/5 528/2/5
f 534/2/5 531/2/5 530/2/5
f 535/2/5 531/2/5 534/2/5
f 536/2/5 533/2/5 532/2/5
f 537/2/5 533/2/5 536/2/5
f 540/2/5 539/2/5 538/2/5
f 541/2/5 539/2/5 540/2/5
f 544/2/5 543/2/5 542/2/5
f 545/2/5 543/2/5 544/2/5
f 548/2/5 547/2/5 546/2/5
f 549/2/5 547/2/5 548/2/5
f 552/2/5 550/2/5 549/2/5
f 553/2/5 550/2/5 552/2/5
f 554/2/5 552/2/5 551/2/5
f 555/2/5 552/2/5 554/2/5
f 558/1/5 557/1/5 556/1/5
f 559/1/5 557/1/5 558/1/5
f 562/1/5 561/1/5 560/1/5
f 563/1/5 561/1/5 562/1/5
f 566/1/5 557/1/5 559/1/5
f 568/1/5 566/1/5 559/1/5
f 568/1/5 567/1/5 566/1/5
f 569/1/5 567/1/5 568/1/5
f 572/1/5 565/1/5 564/1/5
f 573/1/5 565/1/5 572/1/5
f 574/1/5 571/1/5 570/1/5
f 575/1/5 571/1/5 574/1/5
f 576/1/5 558/1/5 556/1/5
f 577/1/5 558/1/5 576/1/5
f 578/1/5 567/1/5 569/1/5
f 579/1/5 578/1/5 577/1/5
f 580/1/5 567/1/5 578/1/5
f 580/1/5 578/1/5 579/1/5
f 581/1/6 582/1/6 583/1/6
f 583/1/6 582/1/6 584/1/6
f 584/1/6 582/1/6 585/1/6
f 585/1/6 582/1/6 586/1/6
f 584/1/6 585/1/6 588/1/6
f 588/1/6 585/1/6 589/1/6
f 591/1/6 592/1/6 593/1/6
f 589/1/6 590/1/6 595/1/6
f 587/1/6 588/1/6 595/1/6
f 588/1/6 589/1/6 595/1/6
f 593/1/6 594/1/6 596/1/6
f 591/1/6 593/1/6 596/1/6
f 587/1/6 595/1/6 597/1/6
f 595/1/6 596/1/6 597/1/6
f 596/1/6 594/1/6 598/1/6
f 597/1/6 596/1/6 598/1/6
f 598/1/6 594/1/6 599/1/6
f 599/1/6 594/1/6 600/1/6
f 587/1/6 597/1/6 601/1/6
f 601/1/6 597/1/6 602/1/6
f 598/1/6 599/1/6 603/1/6
f 603/1/6 599/1/6 604/1/6
f 605/2/6 606/2/6 607/2/6
f 607/2/6 606/2/6 608/2/6
f 609/2/6 610/2/6 611/2/6
f 611/2/6 610/2/6 612/2/6
f 613/2/6 614/2/6 615/2/6
f 615/2/6 614/2/6 616/2/6
f 617/2/6 618/2/6 621/2/6
f 621/2/6 618/2/6 622/2/6
f 619/2/6 620/2/6 623/2/6
f 623/2/6 620/2/6 624/2/6
f 625/2/6 626/2/6 627/2/6
f 627/2/6 626/2/6 628/2/6
f 629/2/6 630/2/6 633/2/6
f 633/2/6 630/2/6 634/2/6
f 631/2/6 632/2/6 635/2/6
f 635/2/6 632/2/6 636/2/6
f 637/1/6 638/1/6 639/1/6
f 639/1/6 638/1/6 640/1/6
f 640/1/6 641/1/6 642/1/6
f 642/1/6 641/1/6 643/1/6
f 644/1/6 645/1/6 647/1/6
f 647/1/6 645/1/6 648/1/6
f 646/1/6 647/1/6 649/1/6
f 649/1/6 647/1/6 650/1/6
f 651/1/6 652/1/6 653/1/6
f 653/1/6 652/1/6 654/1/6
f 654/1/6 652/1/6 655/1/6
f 654/1/6 655/1/6 657/1/6
f 655/1/6 656/1/6 657/1/6
f 657/1/6 656/1/6 658/1/6
f 651/1/6 653/1/6 659/1/6
f 659/1/6 653/1/6 660/1/6
f 660/1/6 653/1/6 661/1/6
f 658/1/6 656/1/6 662/1/6
f 660/1/6 661/1/6 663/1/6
f 661/1/6 662/1/6 663/1/6
f 662/1/6 656/1/6 664/1/6
f 663/1/6 662/1/6 664/1/6
f 667/1/6 668/1/6 669/1/6
f 669/1/6 668/1/6 670/1/6
f 665/1/6 666/1/6 673/1/6
f 673/1/6 666/1/6 674/1/6
f 671/1/6 672/1/6 675/1/6
f 675/1/6 672/1/6 676/1/6
f 679/1/6 680/1/6 681/1/6
f 681/1/6 680/1/6 682/1/6
f 677/1/6 678/1/6 685/1/6
f 685/1/6 678/1/6 686/1/6
f 683/1/6 684/1/6 687/1/6
f 687/1/6 684/1/6 688/1/6
f 691/1/6 692/1/6 693/1/6
f 693/1/6 692/1/6 694/1/6
f 689/1/6 690/1/6 697/1/6
f 697/1/6 690/1/6 698/1/6
f 695/1/6 696/1/6 699/1/6
f 699/1/6 696/1/6 700/1/6
f 703/1/6 704/1/6 705/1/6
f 705/1/6 704/1/6 706/1/6
f 701/1/6 702/1/6 709/1/6
f 709/1/6 702/1/6 710/1/6
f 707/1/6 708/1/6 711/1/6
f 711/1/6 708/1/6 712/1/6
f 715/1/6 716/1/6 717/1/6
f 717/1/6 716/1/6 718/1/6
f 713/1/6 714/1/6 721/1/6
f 721/1/6 714/1/6 722/1/6
f 719/1/6 720/1/6 723/1/6
f 723/1/6 720/1/6 724/1/6
f 727/1/6 728/1/6 729/1/6
f 729/1/6 728/1/6 730/1/6
f 725/1/6 726/1/6 733/1/6
f 733/1/6 726/1/6 734/1/6
f 731/1/6 732/1/6 735/1/6
f 735/1/6 732/1/6 736/1/6
f 737/1/6 738/1/6 739/1/6
f 737/1/6 739/1/6 741/1/6
f 739/1/6 740/1/6 741/1/6
f 741/1/6 740/1/6 742/1/6
