# MagicaVoxel @ Ephtracy

# group
o 

# material
mtllib house1.mtl
usemtl palette

# normals
vn -1 0 0
vn 1 0 0
vn 0 0 1
vn 0 0 -1
vn 0 -1 0
vn 0 1 0

# texcoords
vt 0.185547 0.5
vt 0.279297 0.5
vt 0.966797 0.5

# verts
v -2 1.1 0.4
v -2 1.1 -1.2
v -2 1.2 0.4
v -2 1.2 -1.2
v -1.9 1.2 0.3
v -1.9 1.2 -1.1
v -1.9 1.3 0.3
v -1.9 1.3 -1.1
v -1.8 0 0.2
v -1.8 0 -1
v -1.8 0.1 0.2
v -1.8 0.1 -1
v -1.8 1.1 0.2
v -1.8 1.1 -1
v -1.8 1.3 0.2
v -1.8 1.3 -1
v -1.8 1.4 0.2
v -1.8 1.4 -1
v -1.7 1.4 0.1
v -1.7 1.4 -0.9
v -1.7 1.5 0.1
v -1.7 1.5 -0.9
v -1.6 1.5 0
v -1.6 1.5 -0.8
v -1.6 1.6 0
v -1.6 1.6 -0.8
v -0.9 0.1 0.2
v -0.9 0.1 0.1
v -0.9 0.9 0.2
v -0.9 0.9 0.1
v -0.8 0.4 -0.9
v -0.8 0.4 -1
v -0.8 0.9 -0.9
v -0.8 0.9 -1
v -0.0999999 1.1 1.9
v -0.0999999 1.1 0.4
v -0.0999999 1.2 1.9
v -0.0999999 1.2 0.4
v 2.38419e-07 1.2 1.8
v 2.38419e-07 1.2 0.3
v 2.38419e-07 1.3 1.8
v 2.38419e-07 1.3 0.3
v 0.1 0 1.7
v 0.1 0 0.2
v 0.1 0.1 1.7
v 0.1 0.1 0.2
v 0.1 0.1 0.1
v 0.1 0.1 -0.2
v 0.1 0.1 -0.6
v 0.1 0.1 -0.9
v 0.1 0.4 1.3
v 0.1 0.4 0.6
v 0.1 0.9 1.3
v 0.1 0.9 0.6
v 0.1 0.9 -0.2
v 0.1 0.9 -0.6
v 0.1 1.1 1.7
v 0.1 1.1 0.2
v 0.1 1.1 0.1
v 0.1 1.1 -0.9
v 0.1 1.3 1.7
v 0.1 1.3 0.2
v 0.1 1.4 1.7
v 0.1 1.4 0.2
v 0.2 1.4 1.6
v 0.2 1.4 0.1
v 0.2 1.5 1.6
v 0.2 1.5 0.1
v 0.3 1.5 1.5
v 0.3 1.5 0
v 0.3 1.6 1.5
v 0.3 1.6 0
v 1.5 0.4 1.7
v 1.5 0.4 1.6
v 1.5 0.9 1.7
v 1.5 0.9 1.6
v 1.6 0.1 1.6
v 1.6 0.1 -0.9
v 1.6 0.4 1.5
v 1.6 0.4 1.2
v 1.6 0.4 0.6
v 1.6 0.4 0.3
v 1.6 0.4 -0.3
v 1.6 0.4 -0.6
v 1.6 0.9 1.5
v 1.6 0.9 1.2
v 1.6 0.9 0.6
v 1.6 0.9 0.3
v 1.6 0.9 -0.3
v 1.6 0.9 -0.6
v 1.6 1.1 1.6
v 1.6 1.1 -0.9
v -1.7 0.1 0.1
v -1.7 0.1 -0.9
v -1.7 1.1 0.1
v -1.7 1.1 -0.9
v -1.3 0.1 0.2
v -1.3 0.1 0.1
v -1.3 0.9 0.2
v -1.3 0.9 0.1
v -1.1 0.4 -0.9
v -1.1 0.4 -1
v -1.1 0.9 -0.9
v -1.1 0.9 -1
v 0.2 0.1 1.6
v 0.2 0.1 -0.2
v 0.2 0.1 -0.6
v 0.2 0.1 -0.9
v 0.2 0.4 1.3
v 0.2 0.4 0.6
v 0.2 0.9 1.3
v 0.2 0.9 0.6
v 0.2 0.9 -0.2
v 0.2 0.9 -0.6
v 0.2 1.1 1.6
v 0.2 1.1 -0.9
v 0.3 0.4 1.7
v 0.3 0.4 1.6
v 0.3 0.9 1.7
v 0.3 0.9 1.6
v 1.5 1.5 1.5
v 1.5 1.5 -0.8
v 1.5 1.6 1.5
v 1.5 1.6 -0.8
v 1.6 1.4 1.6
v 1.6 1.4 -0.9
v 1.6 1.5 1.6
v 1.6 1.5 -0.9
v 1.7 0 1.7
v 1.7 0 -1
v 1.7 0.1 1.7
v 1.7 0.1 -1
v 1.7 0.4 1.5
v 1.7 0.4 1.2
v 1.7 0.4 0.6
v 1.7 0.4 0.3
v 1.7 0.4 -0.3
v 1.7 0.4 -0.6
v 1.7 0.9 1.5
v 1.7 0.9 1.2
v 1.7 0.9 0.6
v 1.7 0.9 0.3
v 1.7 0.9 -0.3
v 1.7 0.9 -0.6
v 1.7 1.1 1.7
v 1.7 1.1 -1
v 1.7 1.3 1.7
v 1.7 1.3 -1
v 1.7 1.4 1.7
v 1.7 1.4 -1
v 1.8 1.2 1.8
v 1.8 1.2 -1.1
v 1.8 1.3 1.8
v 1.8 1.3 -1.1
v 1.9 1.1 1.9
v 1.9 1.1 -1.2
v 1.9 1.2 1.9
v 1.9 1.2 -1.2
v -0.0999999 1.1 1.9
v -0.0999999 1.2 1.9
v 1.9 1.1 1.9
v 1.9 1.2 1.9
v 2.38419e-07 1.2 1.8
v 2.38419e-07 1.3 1.8
v 1.8 1.2 1.8
v 1.8 1.3 1.8
v 0.1 0 1.7
v 0.1 0.1 1.7
v 0.1 1.1 1.7
v 0.1 1.3 1.7
v 0.1 1.4 1.7
v 0.3 0.4 1.7
v 0.3 0.9 1.7
v 1.5 0.4 1.7
v 1.5 0.9 1.7
v 1.7 0 1.7
v 1.7 0.1 1.7
v 1.7 1.1 1.7
v 1.7 1.3 1.7
v 1.7 1.4 1.7
v 0.2 1.4 1.6
v 0.2 1.5 1.6
v 1.6 1.4 1.6
v 1.6 1.5 1.6
v 0.3 1.5 1.5
v 0.3 1.6 1.5
v 1.5 1.5 1.5
v 1.5 1.6 1.5
v 1.6 0.4 1.2
v 1.6 0.9 1.2
v 1.7 0.4 1.2
v 1.7 0.9 1.2
v 0.1 0.4 0.6
v 0.1 0.9 0.6
v 0.2 0.4 0.6
v 0.2 0.9 0.6
v -2 1.1 0.4
v -2 1.2 0.4
v -0.0999999 1.1 0.4
v -0.0999999 1.2 0.4
v -1.9 1.2 0.3
v -1.9 1.3 0.3
v 2.38419e-07 1.2 0.3
v 2.38419e-07 1.3 0.3
v 1.6 0.4 0.3
v 1.6 0.9 0.3
v 1.7 0.4 0.3
v 1.7 0.9 0.3
v -1.8 0 0.2
v -1.8 0.1 0.2
v -1.8 1.1 0.2
v -1.8 1.3 0.2
v -1.8 1.4 0.2
v -1.3 0.1 0.2
v -1.3 0.9 0.2
v -0.9 0.1 0.2
v -0.9 0.9 0.2
v 0.1 0 0.2
v 0.1 0.1 0.2
v 0.1 1.1 0.2
v 0.1 1.3 0.2
v 0.1 1.4 0.2
v -1.7 1.4 0.1
v -1.7 1.5 0.1
v 0.2 1.4 0.1
v 0.2 1.5 0.1
v -1.6 1.5 0
v -1.6 1.6 0
v 0.3 1.5 0
v 0.3 1.6 0
v 0.1 0.1 -0.6
v 0.1 0.9 -0.6
v 0.2 0.1 -0.6
v 0.2 0.9 -0.6
v 1.6 0.4 -0.6
v 1.6 0.9 -0.6
v 1.7 0.4 -0.6
v 1.7 0.9 -0.6
v -1.7 0.1 -0.9
v -1.7 1.1 -0.9
v -1.1 0.4 -0.9
v -1.1 0.9 -0.9
v -0.8 0.4 -0.9
v -0.8 0.9 -0.9
v 0.1 0.1 -0.9
v 0.1 1.1 -0.9
v 0.2 0.1 -0.9
v 0.2 1.1 -0.9
v 1.6 0.1 -0.9
v 1.6 1.1 -0.9
v 0.2 0.1 1.6
v 0.2 1.1 1.6
v 0.3 0.4 1.6
v 0.3 0.9 1.6
v 1.5 0.4 1.6
v 1.5 0.9 1.6
v 1.6 0.1 1.6
v 1.6 1.1 1.6
v 1.6 0.4 1.5
v 1.6 0.9 1.5
v 1.7 0.4 1.5
v 1.7 0.9 1.5
v 0.1 0.4 1.3
v 0.1 0.9 1.3
v 0.2 0.4 1.3
v 0.2 0.9 1.3
v 1.6 0.4 0.6
v 1.6 0.9 0.6
v 1.7 0.4 0.6
v 1.7 0.9 0.6
v -1.7 0.1 0.1
v -1.7 1.1 0.1
v -1.3 0.1 0.1
v -1.3 0.9 0.1
v -0.9 0.1 0.1
v -0.9 0.9 0.1
v 0.1 0.1 0.1
v 0.1 1.1 0.1
v 0.1 0.1 -0.2
v 0.1 0.9 -0.2
v 0.2 0.1 -0.2
v 0.2 0.9 -0.2
v 1.6 0.4 -0.3
v 1.6 0.9 -0.3
v 1.7 0.4 -0.3
v 1.7 0.9 -0.3
v -1.6 1.5 -0.8
v -1.6 1.6 -0.8
v 1.5 1.5 -0.8
v 1.5 1.6 -0.8
v -1.7 1.4 -0.9
v -1.7 1.5 -0.9
v 1.6 1.4 -0.9
v 1.6 1.5 -0.9
v -1.8 0 -1
v -1.8 0.1 -1
v -1.8 1.1 -1
v -1.8 1.3 -1
v -1.8 1.4 -1
v -1.1 0.4 -1
v -1.1 0.9 -1
v -0.8 0.4 -1
v -0.8 0.9 -1
v 1.7 0 -1
v 1.7 0.1 -1
v 1.7 1.1 -1
v 1.7 1.3 -1
v 1.7 1.4 -1
v -1.9 1.2 -1.1
v -1.9 1.3 -1.1
v 1.8 1.2 -1.1
v 1.8 1.3 -1.1
v -2 1.1 -1.2
v -2 1.2 -1.2
v 1.9 1.1 -1.2
v 1.9 1.2 -1.2
v 0.1 0 1.7
v 1.7 0 1.7
v -1.8 0 0.2
v 0.1 0 0.2
v -1.8 0 -1
v 1.7 0 -1
v 0.3 0.9 1.7
v 1.5 0.9 1.7
v 0.3 0.9 1.6
v 1.5 0.9 1.6
v 1.6 0.9 1.5
v 1.7 0.9 1.5
v 0.1 0.9 1.3
v 0.2 0.9 1.3
v 1.6 0.9 1.2
v 1.7 0.9 1.2
v 0.1 0.9 0.6
v 0.2 0.9 0.6
v 1.6 0.9 0.6
v 1.7 0.9 0.6
v 1.6 0.9 0.3
v 1.7 0.9 0.3
v -1.3 0.9 0.2
v -0.9 0.9 0.2
v -1.3 0.9 0.1
v -0.9 0.9 0.1
v 0.1 0.9 -0.2
v 0.2 0.9 -0.2
v 1.6 0.9 -0.3
v 1.7 0.9 -0.3
v 0.1 0.9 -0.6
v 0.2 0.9 -0.6
v 1.6 0.9 -0.6
v 1.7 0.9 -0.6
v -1.1 0.9 -0.9
v -0.8 0.9 -0.9
v -1.1 0.9 -1
v -0.8 0.9 -1
v -0.0999999 1.1 1.9
v 1.9 1.1 1.9
v 0.1 1.1 1.7
v 1.7 1.1 1.7
v 0.2 1.1 1.6
v 1.6 1.1 1.6
v -2 1.1 0.4
v -0.0999999 1.1 0.4
v -1.8 1.1 0.2
v 0.1 1.1 0.2
v -1.7 1.1 0.1
v 0.1 1.1 0.1
v -1.7 1.1 -0.9
v 0.1 1.1 -0.9
v 0.2 1.1 -0.9
v 1.6 1.1 -0.9
v -1.8 1.1 -1
v 1.7 1.1 -1
v -2 1.1 -1.2
v 1.9 1.1 -1.2
v 0.2 0.1 1.6
v 1.6 0.1 1.6
v -1.3 0.1 0.2
v -0.9 0.1 0.2
v -1.7 0.1 0.1
v -1.3 0.1 0.1
v -0.9 0.1 0.1
v 0.1 0.1 0.1
v 0.1 0.1 -0.2
v 0.2 0.1 -0.2
v 0.1 0.1 -0.6
v 0.2 0.1 -0.6
v -1.7 0.1 -0.9
v 0.1 0.1 -0.9
v 0.2 0.1 -0.9
v 1.6 0.1 -0.9
v 0.3 0.4 1.7
v 1.5 0.4 1.7
v 0.3 0.4 1.6
v 1.5 0.4 1.6
v 1.6 0.4 1.5
v 1.7 0.4 1.5
v 0.1 0.4 1.3
v 0.2 0.4 1.3
v 1.6 0.4 1.2
v 1.7 0.4 1.2
v 0.1 0.4 0.6
v 0.2 0.4 0.6
v 1.6 0.4 0.6
v 1.7 0.4 0.6
v 1.6 0.4 0.3
v 1.7 0.4 0.3
v 1.6 0.4 -0.3
v 1.7 0.4 -0.3
v 1.6 0.4 -0.6
v 1.7 0.4 -0.6
v -1.1 0.4 -0.9
v -0.8 0.4 -0.9
v -1.1 0.4 -1
v -0.8 0.4 -1
v -0.0999999 1.2 1.9
v 1.9 1.2 1.9
v 2.38419e-07 1.2 1.8
v 1.8 1.2 1.8
v -2 1.2 0.4
v -0.0999999 1.2 0.4
v -1.9 1.2 0.3
v 2.38419e-07 1.2 0.3
v -1.9 1.2 -1.1
v 1.8 1.2 -1.1
v -2 1.2 -1.2
v 1.9 1.2 -1.2
v 2.38419e-07 1.3 1.8
v 1.8 1.3 1.8
v 0.1 1.3 1.7
v 1.7 1.3 1.7
v -1.9 1.3 0.3
v 2.38419e-07 1.3 0.3
v -1.8 1.3 0.2
v 0.1 1.3 0.2
v -1.8 1.3 -1
v 1.7 1.3 -1
v -1.9 1.3 -1.1
v 1.8 1.3 -1.1
v 0.1 1.4 1.7
v 1.7 1.4 1.7
v 0.2 1.4 1.6
v 1.6 1.4 1.6
v -1.8 1.4 0.2
v 0.1 1.4 0.2
v -1.7 1.4 0.1
v 0.2 1.4 0.1
v -1.7 1.4 -0.9
v 1.6 1.4 -0.9
v -1.8 1.4 -1
v 1.7 1.4 -1
v 0.2 1.5 1.6
v 1.6 1.5 1.6
v 0.3 1.5 1.5
v 1.5 1.5 1.5
v -1.7 1.5 0.1
v 0.2 1.5 0.1
v -1.6 1.5 0
v 0.3 1.5 0
v -1.6 1.5 -0.8
v 1.5 1.5 -0.8
v -1.7 1.5 -0.9
v 1.6 1.5 -0.9
v 0.3 1.6 1.5
v 1.5 1.6 1.5
v -1.6 1.6 0
v 0.3 1.6 0
v -1.6 1.6 -0.8
v 1.5 1.6 -0.8

# faces
f 3/1/1 2/1/1 1/1/1
f 4/1/1 2/1/1 3/1/1
f 7/1/1 6/1/1 5/1/1
f 8/1/1 6/1/1 7/1/1
f 11/2/1 10/2/1 9/2/1
f 12/2/1 10/2/1 11/2/1
f 13/3/1 12/3/1 11/3/1
f 14/3/1 12/3/1 13/3/1
f 17/1/1 16/1/1 15/1/1
f 18/1/1 16/1/1 17/1/1
f 21/1/1 20/1/1 19/1/1
f 22/1/1 20/1/1 21/1/1
f 25/1/1 24/1/1 23/1/1
f 26/1/1 24/1/1 25/1/1
f 29/3/1 28/3/1 27/3/1
f 30/3/1 28/3/1 29/3/1
f 33/3/1 32/3/1 31/3/1
f 34/3/1 32/3/1 33/3/1
f 37/1/1 36/1/1 35/1/1
f 38/1/1 36/1/1 37/1/1
f 41/1/1 40/1/1 39/1/1
f 42/1/1 40/1/1 41/1/1
f 45/2/1 44/2/1 43/2/1
f 46/2/1 44/2/1 45/2/1
f 51/3/1 46/3/1 45/3/1
f 52/3/1 46/3/1 51/3/1
f 53/3/1 51/3/1 45/3/1
f 54/3/1 46/3/1 52/3/1
f 55/3/1 48/3/1 47/3/1
f 56/3/1 50/3/1 49/3/1
f 57/3/1 54/3/1 53/3/1
f 57/3/1 53/3/1 45/3/1
f 58/3/1 46/3/1 54/3/1
f 58/3/1 54/3/1 57/3/1
f 59/3/1 55/3/1 47/3/1
f 59/3/1 56/3/1 55/3/1
f 60/3/1 50/3/1 56/3/1
f 60/3/1 56/3/1 59/3/1
f 63/1/1 62/1/1 61/1/1
f 64/1/1 62/1/1 63/1/1
f 67/1/1 66/1/1 65/1/1
f 68/1/1 66/1/1 67/1/1
f 71/1/1 70/1/1 69/1/1
f 72/1/1 70/1/1 71/1/1
f 75/3/1 74/3/1 73/3/1
f 76/3/1 74/3/1 75/3/1
f 79/3/1 78/3/1 77/3/1
f 80/3/1 78/3/1 79/3/1
f 81/3/1 78/3/1 80/3/1
f 82/3/1 78/3/1 81/3/1
f 83/3/1 78/3/1 82/3/1
f 84/3/1 78/3/1 83/3/1
f 85/3/1 79/3/1 77/3/1
f 86/3/1 81/3/1 80/3/1
f 87/3/1 81/3/1 86/3/1
f 88/3/1 83/3/1 82/3/1
f 89/3/1 83/3/1 88/3/1
f 90/3/1 78/3/1 84/3/1
f 91/3/1 89/3/1 88/3/1
f 91/3/1 90/3/1 89/3/1
f 91/3/1 87/3/1 86/3/1
f 91/3/1 85/3/1 77/3/1
f 91/3/1 88/3/1 87/3/1
f 91/3/1 86/3/1 85/3/1
f 92/3/1 78/3/1 90/3/1
f 92/3/1 90/3/1 91/3/1
f 93/3/2 94/3/2 95/3/2
f 95/3/2 94/3/2 96/3/2
f 97/3/2 98/3/2 99/3/2
f 99/3/2 98/3/2 100/3/2
f 101/3/2 102/3/2 103/3/2
f 103/3/2 102/3/2 104/3/2
f 105/3/2 106/3/2 109/3/2
f 109/3/2 106/3/2 110/3/2
f 105/3/2 109/3/2 111/3/2
f 110/3/2 106/3/2 112/3/2
f 112/3/2 106/3/2 113/3/2
f 107/3/2 108/3/2 114/3/2
f 112/3/2 113/3/2 115/3/2
f 113/3/2 114/3/2 115/3/2
f 105/3/2 111/3/2 115/3/2
f 111/3/2 112/3/2 115/3/2
f 114/3/2 108/3/2 116/3/2
f 115/3/2 114/3/2 116/3/2
f 117/3/2 118/3/2 119/3/2
f 119/3/2 118/3/2 120/3/2
f 121/1/2 122/1/2 123/1/2
f 123/1/2 122/1/2 124/1/2
f 125/1/2 126/1/2 127/1/2
f 127/1/2 126/1/2 128/1/2
f 129/2/2 130/2/2 131/2/2
f 131/2/2 130/2/2 132/2/2
f 131/3/2 132/3/2 133/3/2
f 133/3/2 132/3/2 134/3/2
f 134/3/2 132/3/2 135/3/2
f 135/3/2 132/3/2 136/3/2
f 136/3/2 132/3/2 137/3/2
f 137/3/2 132/3/2 138/3/2
f 131/3/2 133/3/2 139/3/2
f 134/3/2 135/3/2 140/3/2
f 140/3/2 135/3/2 141/3/2
f 136/3/2 137/3/2 142/3/2
f 142/3/2 137/3/2 143/3/2
f 138/3/2 132/3/2 144/3/2
f 142/3/2 143/3/2 145/3/2
f 143/3/2 144/3/2 145/3/2
f 140/3/2 141/3/2 145/3/2
f 131/3/2 139/3/2 145/3/2
f 141/3/2 142/3/2 145/3/2
f 139/3/2 140/3/2 145/3/2
f 144/3/2 132/3/2 146/3/2
f 145/3/2 144/3/2 146/3/2
f 147/1/2 148/1/2 149/1/2
f 149/1/2 148/1/2 150/1/2
f 151/1/2 152/1/2 153/1/2
f 153/1/2 152/1/2 154/1/2
f 155/1/2 156/1/2 157/1/2
f 157/1/2 156/1/2 158/1/2
f 161/1/3 160/1/3 159/1/3
f 162/1/3 160/1/3 161/1/3
f 165/1/3 164/1/3 163/1/3
f 166/1/3 164/1/3 165/1/3
f 172/3/3 169/3/3 168/3/3
f 173/3/3 169/3/3 172/3/3
f 174/3/3 172/3/3 168/3/3
f 175/3/3 169/3/3 173/3/3
f 176/2/3 168/2/3 167/2/3
f 177/3/3 175/3/3 174/3/3
f 177/2/3 168/2/3 176/2/3
f 177/3/3 174/3/3 168/3/3
f 178/3/3 169/3/3 175/3/3
f 178/3/3 175/3/3 177/3/3
f 179/1/3 171/1/3 170/1/3
f 180/1/3 171/1/3 179/1/3
f 183/1/3 182/1/3 181/1/3
f 184/1/3 182/1/3 183/1/3
f 187/1/3 186/1/3 185/1/3
f 188/1/3 186/1/3 187/1/3
f 191/3/3 190/3/3 189/3/3
f 192/3/3 190/3/3 191/3/3
f 195/3/3 194/3/3 193/3/3
f 196/3/3 194/3/3 195/3/3
f 199/1/3 198/1/3 197/1/3
f 200/1/3 198/1/3 199/1/3
f 203/1/3 202/1/3 201/1/3
f 204/1/3 202/1/3 203/1/3
f 207/3/3 206/3/3 205/3/3
f 208/3/3 206/3/3 207/3/3
f 214/2/3 210/2/3 209/2/3
f 214/3/3 211/3/3 210/3/3
f 215/3/3 211/3/3 214/3/3
f 216/2/3 214/2/3 209/2/3
f 217/3/3 211/3/3 215/3/3
f 218/2/3 216/2/3 209/2/3
f 219/3/3 217/3/3 216/3/3
f 219/2/3 216/2/3 218/2/3
f 220/3/3 211/3/3 217/3/3
f 220/3/3 217/3/3 219/3/3
f 221/1/3 213/1/3 212/1/3
f 222/1/3 213/1/3 221/1/3
f 225/1/3 224/1/3 223/1/3
f 226/1/3 224/1/3 225/1/3
f 229/1/3 228/1/3 227/1/3
f 230/1/3 228/1/3 229/1/3
f 233/3/3 232/3/3 231/3/3
f 234/3/3 232/3/3 233/3/3
f 237/3/3 236/3/3 235/3/3
f 238/3/3 236/3/3 237/3/3
f 241/3/3 240/3/3 239/3/3
f 242/3/3 240/3/3 241/3/3
f 243/3/3 241/3/3 239/3/3
f 244/3/3 240/3/3 242/3/3
f 245/3/3 243/3/3 239/3/3
f 245/3/3 244/3/3 243/3/3
f 246/3/3 240/3/3 244/3/3
f 246/3/3 244/3/3 245/3/3
f 249/3/3 248/3/3 247/3/3
f 250/3/3 248/3/3 249/3/3
f 251/3/4 252/3/4 253/3/4
f 253/3/4 252/3/4 254/3/4
f 251/3/4 253/3/4 255/3/4
f 254/3/4 252/3/4 256/3/4
f 251/3/4 255/3/4 257/3/4
f 255/3/4 256/3/4 257/3/4
f 256/3/4 252/3/4 258/3/4
f 257/3/4 256/3/4 258/3/4
f 259/3/4 260/3/4 261/3/4
f 261/3/4 260/3/4 262/3/4
f 263/3/4 264/3/4 265/3/4
f 265/3/4 264/3/4 266/3/4
f 267/3/4 268/3/4 269/3/4
f 269/3/4 268/3/4 270/3/4
f 271/3/4 272/3/4 273/3/4
f 273/3/4 272/3/4 274/3/4
f 274/3/4 272/3/4 276/3/4
f 275/3/4 276/3/4 277/3/4
f 276/3/4 272/3/4 278/3/4
f 277/3/4 276/3/4 278/3/4
f 279/3/4 280/3/4 281/3/4
f 281/3/4 280/3/4 282/3/4
f 283/3/4 284/3/4 285/3/4
f 285/3/4 284/3/4 286/3/4
f 287/1/4 288/1/4 289/1/4
f 289/1/4 288/1/4 290/1/4
f 291/1/4 292/1/4 293/1/4
f 293/1/4 292/1/4 294/1/4
f 296/3/4 297/3/4 300/3/4
f 300/3/4 297/3/4 301/3/4
f 296/3/4 300/3/4 302/3/4
f 301/3/4 297/3/4 303/3/4
f 295/2/4 296/2/4 304/2/4
f 302/3/4 303/3/4 305/3/4
f 304/2/4 296/2/4 305/2/4
f 296/3/4 302/3/4 305/3/4
f 303/3/4 297/3/4 306/3/4
f 305/3/4 303/3/4 306/3/4
f 298/1/4 299/1/4 307/1/4
f 307/1/4 299/1/4 308/1/4
f 309/1/4 310/1/4 311/1/4
f 311/1/4 310/1/4 312/1/4
f 313/1/4 314/1/4 315/1/4
f 315/1/4 314/1/4 316/1/4
f 320/2/5 318/2/5 317/2/5
f 321/2/5 320/2/5 319/2/5
f 322/2/5 318/2/5 320/2/5
f 322/2/5 320/2/5 321/2/5
f 325/3/5 324/3/5 323/3/5
f 326/3/5 324/3/5 325/3/5
f 331/3/5 328/3/5 327/3/5
f 332/3/5 328/3/5 331/3/5
f 333/3/5 330/3/5 329/3/5
f 334/3/5 330/3/5 333/3/5
f 337/3/5 336/3/5 335/3/5
f 338/3/5 336/3/5 337/3/5
f 341/3/5 340/3/5 339/3/5
f 342/3/5 340/3/5 341/3/5
f 347/3/5 344/3/5 343/3/5
f 348/3/5 344/3/5 347/3/5
f 349/3/5 346/3/5 345/3/5
f 350/3/5 346/3/5 349/3/5
f 353/3/5 352/3/5 351/3/5
f 354/3/5 352/3/5 353/3/5
f 357/1/5 356/1/5 355/1/5
f 358/1/5 356/1/5 357/1/5
f 362/1/5 357/1/5 355/1/5
f 363/1/5 362/1/5 361/1/5
f 364/1/5 357/1/5 362/1/5
f 364/1/5 362/1/5 363/1/5
f 367/3/5 366/3/5 365/3/5
f 368/3/5 366/3/5 367/3/5
f 369/3/5 360/3/5 359/3/5
f 370/3/5 360/3/5 369/3/5
f 371/1/5 363/1/5 361/1/5
f 372/1/5 356/1/5 358/1/5
f 373/1/5 371/1/5 361/1/5
f 373/1/5 372/1/5 371/1/5
f 374/1/5 356/1/5 372/1/5
f 374/1/5 372/1/5 373/1/5
f 377/2/6 378/2/6 380/2/6
f 380/2/6 378/2/6 381/2/6
f 379/2/6 380/2/6 383/2/6
f 381/2/6 382/2/6 383/2/6
f 380/2/6 381/2/6 383/2/6
f 375/2/6 376/2/6 384/2/6
f 379/2/6 383/2/6 385/2/6
f 383/2/6 384/2/6 385/2/6
f 384/2/6 376/2/6 386/2/6
f 385/2/6 384/2/6 386/2/6
f 379/2/6 385/2/6 387/2/6
f 387/2/6 385/2/6 388/2/6
f 386/2/6 376/2/6 389/2/6
f 389/2/6 376/2/6 390/2/6
f 391/3/6 392/3/6 393/3/6
f 393/3/6 392/3/6 394/3/6
f 395/3/6 396/3/6 399/3/6
f 399/3/6 396/3/6 400/3/6
f 397/3/6 398/3/6 401/3/6
f 401/3/6 398/3/6 402/3/6
f 403/3/6 404/3/6 405/3/6
f 405/3/6 404/3/6 406/3/6
f 407/3/6 408/3/6 409/3/6
f 409/3/6 408/3/6 410/3/6
f 411/3/6 412/3/6 413/3/6
f 413/3/6 412/3/6 414/3/6
f 415/1/6 416/1/6 417/1/6
f 417/1/6 416/1/6 418/1/6
f 415/1/6 417/1/6 420/1/6
f 419/1/6 420/1/6 421/1/6
f 420/1/6 417/1/6 422/1/6
f 421/1/6 420/1/6 422/1/6
f 419/1/6 421/1/6 423/1/6
f 418/1/6 416/1/6 424/1/6
f 419/1/6 423/1/6 425/1/6
f 423/1/6 424/1/6 425/1/6
f 424/1/6 416/1/6 426/1/6
f 425/1/6 424/1/6 426/1/6
f 427/1/6 428/1/6 429/1/6
f 429/1/6 428/1/6 430/1/6
f 427/1/6 429/1/6 432/1/6
f 431/1/6 432/1/6 433/1/6
f 432/1/6 429/1/6 434/1/6
f 433/1/6 432/1/6 434/1/6
f 431/1/6 433/1/6 435/1/6
f 430/1/6 428/1/6 436/1/6
f 431/1/6 435/1/6 437/1/6
f 435/1/6 436/1/6 437/1/6
f 436/1/6 428/1/6 438/1/6
f 437/1/6 436/1/6 438/1/6
f 439/1/6 440/1/6 441/1/6
f 441/1/6 440/1/6 442/1/6
f 439/1/6 441/1/6 444/1/6
f 443/1/6 444/1/6 445/1/6
f 444/1/6 441/1/6 446/1/6
f 445/1/6 444/1/6 446/1/6
f 443/1/6 445/1/6 447/1/6
f 442/1/6 440/1/6 448/1/6
f 443/1/6 447/1/6 449/1/6
f 447/1/6 448/1/6 449/1/6
f 448/1/6 440/1/6 450/1/6
f 449/1/6 448/1/6 450/1/6
f 451/1/6 452/1/6 453/1/6
f 453/1/6 452/1/6 454/1/6
f 451/1/6 453/1/6 456/1/6
f 455/1/6 456/1/6 457/1/6
f 456/1/6 453/1/6 458/1/6
f 457/1/6 456/1/6 458/1/6
f 455/1/6 457/1/6 459/1/6
f 454/1/6 452/1/6 460/1/6
f 455/1/6 459/1/6 461/1/6
f 459/1/6 460/1/6 461/1/6
f 460/1/6 452/1/6 462/1/6
f 461/1/6 460/1/6 462/1/6
f 463/1/6 464/1/6 466/1/6
f 465/1/6 466/1/6 467/1/6
f 466/1/6 464/1/6 468/1/6
f 467/1/6 466/1/6 468/1/6
