# MagicaVoxel @ Ephtracy

# group
o 

# material
mtllib house2.mtl
usemtl palette

# normals
vn -1 0 0
vn 1 0 0
vn 0 0 1
vn 0 0 -1
vn 0 -1 0
vn 0 1 0

# texcoords
vt 0.00195313 0.5
vt 0.123047 0.5
vt 0.248047 0.5
vt 0.275391 0.5

# verts
v -2.1 1.2 1.1
v -2.1 1.2 -2.1
v -2.1 1.3 1.1
v -2.1 1.3 -2.1
v -2 0 1
v -2 0 -2
v -2 0.1 1
v -2 0.1 -2
v -2 0.4 0.4
v -2 0.4 0.0999999
v -2 0.4 -0.2
v -2 0.4 -0.5
v -2 0.4 -0.8
v -2 0.4 -1.1
v -2 0.8 0.4
v -2 0.8 0.0999999
v -2 0.8 -0.2
v -2 0.8 -0.5
v -2 0.8 -0.8
v -2 0.8 -1.1
v -2 1.2 1
v -2 1.2 -2
v -2 1.3 1
v -2 1.3 -2
v -2 1.4 1
v -2 1.4 -2
v -1.9 1.4 0.9
v -1.9 1.4 -1.9
v -1.9 1.5 0.9
v -1.9 1.5 -1.9
v -1.8 1.5 0.8
v -1.8 1.5 -1.8
v -1.8 1.6 0.8
v -1.8 1.6 -1.8
v -1.2 0.4 -1.9
v -1.2 0.4 -2
v -1.2 0.8 -1.9
v -1.2 0.8 -2
v -0.7 0.1 -0.6
v -0.7 0.1 -0.7
v -0.7 0.8 -0.6
v -0.7 0.8 -0.7
v -0.6 0.4 -1.9
v -0.6 0.4 -2
v -0.6 0.8 -1.9
v -0.6 0.8 -2
v 0 0.1 1
v 0 0.1 0.9
v 0 0.4 -1.9
v 0 0.4 -2
v 0 0.8 1
v 0 0.8 0.9
v 0 0.8 -1.9
v 0 0.8 -2
v 0.4 0.1 0.9
v 0.4 0.1 0.3
v 0.4 0.1 -0.1
v 0.4 0.1 -0.6
v 0.4 0.1 -0.7
v 0.4 0.1 -1.9
v 0.4 0.8 0.3
v 0.4 0.8 -0.1
v 0.4 1.3 0.9
v 0.4 1.3 -0.6
v 0.4 1.3 -0.7
v 0.4 1.3 -1.9
v 1.2 0.4 -1.9
v 1.2 0.4 -2
v 1.2 0.8 -1.9
v 1.2 0.8 -2
v 1.9 0.1 0.9
v 1.9 0.1 -1.9
v 1.9 0.4 0.3
v 1.9 0.4 -1.19209e-07
v 1.9 0.4 -0.5
v 1.9 0.4 -0.8
v 1.9 0.4 -1.4
v 1.9 0.4 -1.7
v 1.9 0.8 0.3
v 1.9 0.8 -1.19209e-07
v 1.9 0.8 -0.5
v 1.9 0.8 -0.8
v 1.9 0.8 -1.4
v 1.9 0.8 -1.7
v 1.9 1.3 0.9
v 1.9 1.3 -1.9
v -1.9 0.1 0.9
v -1.9 0.1 -0.6
v -1.9 0.1 -0.7
v -1.9 0.1 -1.9
v -1.9 0.4 0.4
v -1.9 0.4 0.0999999
v -1.9 0.4 -0.2
v -1.9 0.4 -0.5
v -1.9 0.4 -0.8
v -1.9 0.4 -1.1
v -1.9 0.8 0.4
v -1.9 0.8 0.0999999
v -1.9 0.8 -0.2
v -1.9 0.8 -0.5
v -1.9 0.8 -0.8
v -1.9 0.8 -1.1
v -1.9 1.3 0.9
v -1.9 1.3 -0.6
v -1.9 1.3 -0.7
v -1.9 1.3 -1.9
v -1.5 0.4 -1.9
v -1.5 0.4 -2
v -1.5 0.8 -1.9
v -1.5 0.8 -2
v -1.1 0.1 -0.6
v -1.1 0.1 -0.7
v -1.1 0.8 -0.6
v -1.1 0.8 -0.7
v -0.9 0.4 -1.9
v -0.9 0.4 -2
v -0.9 0.8 -1.9
v -0.9 0.8 -2
v -0.4 0.1 1
v -0.4 0.1 0.9
v -0.4 0.8 1
v -0.4 0.8 0.9
v -0.3 0.4 -1.9
v -0.3 0.4 -2
v -0.3 0.8 -1.9
v -0.3 0.8 -2
v 0.5 0.1 0.9
v 0.5 0.1 0.3
v 0.5 0.1 -0.1
v 0.5 0.1 -1.9
v 0.5 0.8 0.3
v 0.5 0.8 -0.1
v 0.5 1.3 0.9
v 0.5 1.3 -1.9
v 0.9 0.4 -1.9
v 0.9 0.4 -2
v 0.9 0.8 -1.9
v 0.9 0.8 -2
v 1.8 1.5 0.8
v 1.8 1.5 -1.8
v 1.8 1.6 0.8
v 1.8 1.6 -1.8
v 1.9 1.4 0.9
v 1.9 1.4 -1.9
v 1.9 1.5 0.9
v 1.9 1.5 -1.9
v 2 0 1
v 2 0 -2
v 2 0.1 1
v 2 0.1 -2
v 2 0.4 0.3
v 2 0.4 -1.19209e-07
v 2 0.4 -0.5
v 2 0.4 -0.8
v 2 0.4 -1.4
v 2 0.4 -1.7
v 2 0.8 0.3
v 2 0.8 -1.19209e-07
v 2 0.8 -0.5
v 2 0.8 -0.8
v 2 0.8 -1.4
v 2 0.8 -1.7
v 2 1.2 1
v 2 1.2 -2
v 2 1.3 1
v 2 1.3 -2
v 2 1.4 1
v 2 1.4 -2
v 2.1 1.2 1.1
v 2.1 1.2 -2.1
v 2.1 1.3 1.1
v 2.1 1.3 -2.1
v -2.1 1.2 1.1
v -2.1 1.3 1.1
v 2.1 1.2 1.1
v 2.1 1.3 1.1
v -2 0 1
v -2 0.1 1
v -2 1.2 1
v -2 1.3 1
v -2 1.4 1
v -0.4 0.1 1
v -0.4 0.8 1
v 0 0.1 1
v 0 0.8 1
v 2 0 1
v 2 0.1 1
v 2 1.2 1
v 2 1.3 1
v 2 1.4 1
v -1.9 1.4 0.9
v -1.9 1.5 0.9
v 1.9 1.4 0.9
v 1.9 1.5 0.9
v -1.8 1.5 0.8
v -1.8 1.6 0.8
v 1.8 1.5 0.8
v 1.8 1.6 0.8
v -2 0.4 0.0999999
v -2 0.8 0.0999999
v -1.9 0.4 0.0999999
v -1.9 0.8 0.0999999
v 1.9 0.4 -1.19209e-07
v 1.9 0.8 -1.19209e-07
v 2 0.4 -1.19209e-07
v 2 0.8 -1.19209e-07
v 0.4 0.1 -0.1
v 0.4 0.8 -0.1
v 0.5 0.1 -0.1
v 0.5 0.8 -0.1
v -2 0.4 -0.5
v -2 0.8 -0.5
v -1.9 0.4 -0.5
v -1.9 0.8 -0.5
v -1.9 0.1 -0.6
v -1.9 1.3 -0.6
v -1.1 0.1 -0.6
v -1.1 0.8 -0.6
v -0.7 0.1 -0.6
v -0.7 0.8 -0.6
v 0.4 0.1 -0.6
v 0.4 1.3 -0.6
v 1.9 0.4 -0.8
v 1.9 0.8 -0.8
v 2 0.4 -0.8
v 2 0.8 -0.8
v -2 0.4 -1.1
v -2 0.8 -1.1
v -1.9 0.4 -1.1
v -1.9 0.8 -1.1
v 1.9 0.4 -1.7
v 1.9 0.8 -1.7
v 2 0.4 -1.7
v 2 0.8 -1.7
v -1.9 0.1 -1.9
v -1.9 1.3 -1.9
v -1.5 0.4 -1.9
v -1.5 0.8 -1.9
v -1.2 0.4 -1.9
v -1.2 0.8 -1.9
v -0.9 0.4 -1.9
v -0.9 0.8 -1.9
v -0.6 0.4 -1.9
v -0.6 0.8 -1.9
v -0.3 0.4 -1.9
v -0.3 0.8 -1.9
v 0 0.4 -1.9
v 0 0.8 -1.9
v 0.4 0.1 -1.9
v 0.4 1.3 -1.9
v 0.5 0.1 -1.9
v 0.5 1.3 -1.9
v 0.9 0.4 -1.9
v 0.9 0.8 -1.9
v 1.2 0.4 -1.9
v 1.2 0.8 -1.9
v 1.9 0.1 -1.9
v 1.9 1.3 -1.9
v -1.9 0.1 0.9
v -1.9 1.3 0.9
v -0.4 0.1 0.9
v -0.4 0.8 0.9
v 0 0.1 0.9
v 0 0.8 0.9
v 0.4 0.1 0.9
v 0.4 1.3 0.9
v 0.5 0.1 0.9
v 0.5 1.3 0.9
v 1.9 0.1 0.9
v 1.9 1.3 0.9
v -2 0.4 0.4
v -2 0.8 0.4
v -1.9 0.4 0.4
v -1.9 0.8 0.4
v 0.4 0.1 0.3
v 0.4 0.8 0.3
v 0.5 0.1 0.3
v 0.5 0.8 0.3
v 1.9 0.4 0.3
v 1.9 0.8 0.3
v 2 0.4 0.3
v 2 0.8 0.3
v -2 0.4 -0.2
v -2 0.8 -0.2
v -1.9 0.4 -0.2
v -1.9 0.8 -0.2
v 1.9 0.4 -0.5
v 1.9 0.8 -0.5
v 2 0.4 -0.5
v 2 0.8 -0.5
v -1.9 0.1 -0.7
v -1.9 1.3 -0.7
v -1.1 0.1 -0.7
v -1.1 0.8 -0.7
v -0.7 0.1 -0.7
v -0.7 0.8 -0.7
v 0.4 0.1 -0.7
v 0.4 1.3 -0.7
v -2 0.4 -0.8
v -2 0.8 -0.8
v -1.9 0.4 -0.8
v -1.9 0.8 -0.8
v 1.9 0.4 -1.4
v 1.9 0.8 -1.4
v 2 0.4 -1.4
v 2 0.8 -1.4
v -1.8 1.5 -1.8
v -1.8 1.6 -1.8
v 1.8 1.5 -1.8
v 1.8 1.6 -1.8
v -1.9 1.4 -1.9
v -1.9 1.5 -1.9
v 1.9 1.4 -1.9
v 1.9 1.5 -1.9
v -2 0 -2
v -2 0.1 -2
v -2 1.2 -2
v -2 1.3 -2
v -2 1.4 -2
v -1.5 0.4 -2
v -1.5 0.8 -2
v -1.2 0.4 -2
v -1.2 0.8 -2
v -0.9 0.4 -2
v -0.9 0.8 -2
v -0.6 0.4 -2
v -0.6 0.8 -2
v -0.3 0.4 -2
v -0.3 0.8 -2
v 0 0.4 -2
v 0 0.8 -2
v 0.9 0.4 -2
v 0.9 0.8 -2
v 1.2 0.4 -2
v 1.2 0.8 -2
v 2 0 -2
v 2 0.1 -2
v 2 1.2 -2
v 2 1.3 -2
v 2 1.4 -2
v -2.1 1.2 -2.1
v -2.1 1.3 -2.1
v 2.1 1.2 -2.1
v 2.1 1.3 -2.1
v -2 0 1
v 2 0 1
v -2 0 -2
v 2 0 -2
v -0.4 0.8 1
v 0 0.8 1
v -0.4 0.8 0.9
v 0 0.8 0.9
v -2 0.8 0.4
v -1.9 0.8 0.4
v 0.4 0.8 0.3
v 0.5 0.8 0.3
v 1.9 0.8 0.3
v 2 0.8 0.3
v -2 0.8 0.0999999
v -1.9 0.8 0.0999999
v 1.9 0.8 -1.19209e-07
v 2 0.8 -1.19209e-07
v 0.4 0.8 -0.1
v 0.5 0.8 -0.1
v -2 0.8 -0.2
v -1.9 0.8 -0.2
v -2 0.8 -0.5
v -1.9 0.8 -0.5
v 1.9 0.8 -0.5
v 2 0.8 -0.5
v -1.1 0.8 -0.6
v -0.7 0.8 -0.6
v -1.1 0.8 -0.7
v -0.7 0.8 -0.7
v -2 0.8 -0.8
v -1.9 0.8 -0.8
v 1.9 0.8 -0.8
v 2 0.8 -0.8
v -2 0.8 -1.1
v -1.9 0.8 -1.1
v 1.9 0.8 -1.4
v 2 0.8 -1.4
v 1.9 0.8 -1.7
v 2 0.8 -1.7
v -1.5 0.8 -1.9
v -1.2 0.8 -1.9
v -0.9 0.8 -1.9
v -0.6 0.8 -1.9
v -0.3 0.8 -1.9
v 0 0.8 -1.9
v 0.9 0.8 -1.9
v 1.2 0.8 -1.9
v -1.5 0.8 -2
v -1.2 0.8 -2
v -0.9 0.8 -2
v -0.6 0.8 -2
v -0.3 0.8 -2
v 0 0.8 -2
v 0.9 0.8 -2
v 1.2 0.8 -2
v -2.1 1.2 1.1
v 2.1 1.2 1.1
v -2 1.2 1
v 2 1.2 1
v -2 1.2 -2
v 2 1.2 -2
v -2.1 1.2 -2.1
v 2.1 1.2 -2.1
v -1.9 1.3 0.9
v 0.4 1.3 0.9
v 0.5 1.3 0.9
v 1.9 1.3 0.9
v -1.9 1.3 -0.6
v 0.4 1.3 -0.6
v -1.9 1.3 -0.7
v 0.4 1.3 -0.7
v -1.9 1.3 -1.9
v 0.4 1.3 -1.9
v 0.5 1.3 -1.9
v 1.9 1.3 -1.9
v -0.4 0.1 1
v 0 0.1 1
v -1.9 0.1 0.9
v -0.4 0.1 0.9
v 0 0.1 0.9
v 0.4 0.1 0.9
v 0.5 0.1 0.9
v 1.9 0.1 0.9
v 0.4 0.1 0.3
v 0.5 0.1 0.3
v 0.4 0.1 -0.1
v 0.5 0.1 -0.1
v -1.9 0.1 -0.6
v -1.1 0.1 -0.6
v -0.7 0.1 -0.6
v 0.4 0.1 -0.6
v -1.9 0.1 -0.7
v -1.1 0.1 -0.7
v -0.7 0.1 -0.7
v 0.4 0.1 -0.7
v -1.9 0.1 -1.9
v 0.4 0.1 -1.9
v 0.5 0.1 -1.9
v 1.9 0.1 -1.9
v -2 0.4 0.4
v -1.9 0.4 0.4
v 1.9 0.4 0.3
v 2 0.4 0.3
v -2 0.4 0.0999999
v -1.9 0.4 0.0999999
v 1.9 0.4 -1.19209e-07
v 2 0.4 -1.19209e-07
v -2 0.4 -0.2
v -1.9 0.4 -0.2
v -2 0.4 -0.5
v -1.9 0.4 -0.5
v 1.9 0.4 -0.5
v 2 0.4 -0.5
v -2 0.4 -0.8
v -1.9 0.4 -0.8
v 1.9 0.4 -0.8
v 2 0.4 -0.8
v -2 0.4 -1.1
v -1.9 0.4 -1.1
v 1.9 0.4 -1.4
v 2 0.4 -1.4
v 1.9 0.4 -1.7
v 2 0.4 -1.7
v -1.5 0.4 -1.9
v -1.2 0.4 -1.9
v -0.9 0.4 -1.9
v -0.6 0.4 -1.9
v -0.3 0.4 -1.9
v 0 0.4 -1.9
v 0.9 0.4 -1.9
v 1.2 0.4 -1.9
v -1.5 0.4 -2
v -1.2 0.4 -2
v -0.9 0.4 -2
v -0.6 0.4 -2
v -0.3 0.4 -2
v 0 0.4 -2
v 0.9 0.4 -2
v 1.2 0.4 -2
v -2.1 1.3 1.1
v 2.1 1.3 1.1
v -2 1.3 1
v 2 1.3 1
v -2 1.3 -2
v 2 1.3 -2
v -2.1 1.3 -2.1
v 2.1 1.3 -2.1
v -2 1.4 1
v 2 1.4 1
v -1.9 1.4 0.9
v 1.9 1.4 0.9
v -1.9 1.4 -1.9
v 1.9 1.4 -1.9
v -2 1.4 -2
v 2 1.4 -2
v -1.9 1.5 0.9
v 1.9 1.5 0.9
v -1.8 1.5 0.8
v 1.8 1.5 0.8
v -1.8 1.5 -1.8
v 1.8 1.5 -1.8
v -1.9 1.5 -1.9
v 1.9 1.5 -1.9
v -1.8 1.6 0.8
v 1.8 1.6 0.8
v -1.8 1.6 -1.8
v 1.8 1.6 -1.8

# faces
f 3/2/1 2/2/1 1/2/1
f 4/2/1 2/2/1 3/2/1
f 7/2/1 6/2/1 5/2/1
f 8/2/1 6/2/1 7/2/1
f 9/4/1 8/4/1 7/4/1
f 10/4/1 8/4/1 9/4/1
f 11/4/1 8/4/1 10/4/1
f 12/4/1 8/4/1 11/4/1
f 13/4/1 8/4/1 12/4/1
f 14/4/1 8/4/1 13/4/1
f 15/4/1 9/4/1 7/4/1
f 16/4/1 11/4/1 10/4/1
f 17/4/1 11/4/1 16/4/1
f 18/4/1 13/4/1 12/4/1
f 19/4/1 13/4/1 18/4/1
f 20/4/1 8/4/1 14/4/1
f 21/4/1 19/4/1 18/4/1
f 21/4/1 20/4/1 19/4/1
f 21/4/1 17/4/1 16/4/1
f 21/4/1 15/4/1 7/4/1
f 21/4/1 18/4/1 17/4/1
f 21/4/1 16/4/1 15/4/1
f 22/4/1 8/4/1 20/4/1
f 22/4/1 20/4/1 21/4/1
f 25/2/1 24/2/1 23/2/1
f 26/2/1 24/2/1 25/2/1
f 29/2/1 28/2/1 27/2/1
f 30/2/1 28/2/1 29/2/1
f 33/2/1 32/2/1 31/2/1
f 34/2/1 32/2/1 33/2/1
f 37/4/1 36/4/1 35/4/1
f 38/4/1 36/4/1 37/4/1
f 41/3/1 40/3/1 39/3/1
f 42/3/1 40/3/1 41/3/1
f 45/4/1 44/4/1 43/4/1
f 46/4/1 44/4/1 45/4/1
f 51/4/1 48/4/1 47/4/1
f 52/4/1 48/4/1 51/4/1
f 53/4/1 50/4/1 49/4/1
f 54/4/1 50/4/1 53/4/1
f 61/3/1 56/3/1 55/3/1
f 62/3/1 58/3/1 57/3/1
f 63/3/1 61/3/1 55/3/1
f 63/3/1 62/3/1 61/3/1
f 64/3/1 58/3/1 62/3/1
f 64/3/1 62/3/1 63/3/1
f 65/3/1 60/3/1 59/3/1
f 66/3/1 60/3/1 65/3/1
f 69/4/1 68/4/1 67/4/1
f 70/4/1 68/4/1 69/4/1
f 73/4/1 72/4/1 71/4/1
f 74/4/1 72/4/1 73/4/1
f 75/4/1 72/4/1 74/4/1
f 76/4/1 72/4/1 75/4/1
f 77/4/1 72/4/1 76/4/1
f 78/4/1 72/4/1 77/4/1
f 79/4/1 73/4/1 71/4/1
f 80/4/1 75/4/1 74/4/1
f 81/4/1 75/4/1 80/4/1
f 82/4/1 77/4/1 76/4/1
f 83/4/1 77/4/1 82/4/1
f 84/4/1 72/4/1 78/4/1
f 85/4/1 83/4/1 82/4/1
f 85/4/1 84/4/1 83/4/1
f 85/4/1 81/4/1 80/4/1
f 85/4/1 79/4/1 71/4/1
f 85/4/1 82/4/1 81/4/1
f 85/4/1 80/4/1 79/4/1
f 86/4/1 72/4/1 84/4/1
f 86/4/1 84/4/1 85/4/1
f 87/4/2 88/4/2 91/4/2
f 91/4/2 88/4/2 92/4/2
f 92/4/2 88/4/2 93/4/2
f 93/4/2 88/4/2 94/4/2
f 89/4/2 90/4/2 95/4/2
f 95/4/2 90/4/2 96/4/2
f 87/4/2 91/4/2 97/4/2
f 92/4/2 93/4/2 98/4/2
f 98/4/2 93/4/2 99/4/2
f 94/4/2 88/4/2 100/4/2
f 89/4/2 95/4/2 101/4/2
f 96/4/2 90/4/2 102/4/2
f 98/4/2 99/4/2 103/4/2
f 99/4/2 100/4/2 103/4/2
f 87/4/2 97/4/2 103/4/2
f 97/4/2 98/4/2 103/4/2
f 100/4/2 88/4/2 104/4/2
f 103/4/2 100/4/2 104/4/2
f 101/4/2 102/4/2 105/4/2
f 89/4/2 101/4/2 105/4/2
f 102/4/2 90/4/2 106/4/2
f 105/4/2 102/4/2 106/4/2
f 107/4/2 108/4/2 109/4/2
f 109/4/2 108/4/2 110/4/2
f 111/3/2 112/3/2 113/3/2
f 113/3/2 112/3/2 114/3/2
f 115/4/2 116/4/2 117/4/2
f 117/4/2 116/4/2 118/4/2
f 119/4/2 120/4/2 121/4/2
f 121/4/2 120/4/2 122/4/2
f 123/4/2 124/4/2 125/4/2
f 125/4/2 124/4/2 126/4/2
f 127/3/2 128/3/2 131/3/2
f 129/3/2 130/3/2 132/3/2
f 127/3/2 131/3/2 133/3/2
f 131/3/2 132/3/2 133/3/2
f 132/3/2 130/3/2 134/3/2
f 133/3/2 132/3/2 134/3/2
f 135/4/2 136/4/2 137/4/2
f 137/4/2 136/4/2 138/4/2
f 139/2/2 140/2/2 141/2/2
f 141/2/2 140/2/2 142/2/2
f 143/2/2 144/2/2 145/2/2
f 145/2/2 144/2/2 146/2/2
f 147/2/2 148/2/2 149/2/2
f 149/2/2 148/2/2 150/2/2
f 149/4/2 150/4/2 151/4/2
f 151/4/2 150/4/2 152/4/2
f 152/4/2 150/4/2 153/4/2
f 153/4/2 150/4/2 154/4/2
f 154/4/2 150/4/2 155/4/2
f 155/4/2 150/4/2 156/4/2
f 149/4/2 151/4/2 157/4/2
f 152/4/2 153/4/2 158/4/2
f 158/4/2 153/4/2 159/4/2
f 154/4/2 155/4/2 160/4/2
f 160/4/2 155/4/2 161/4/2
f 156/4/2 150/4/2 162/4/2
f 160/4/2 161/4/2 163/4/2
f 161/4/2 162/4/2 163/4/2
f 158/4/2 159/4/2 163/4/2
f 149/4/2 157/4/2 163/4/2
f 159/4/2 160/4/2 163/4/2
f 157/4/2 158/4/2 163/4/2
f 162/4/2 150/4/2 164/4/2
f 163/4/2 162/4/2 164/4/2
f 165/2/2 166/2/2 167/2/2
f 167/2/2 166/2/2 168/2/2
f 169/2/2 170/2/2 171/2/2
f 171/2/2 170/2/2 172/2/2
f 175/2/3 174/2/3 173/2/3
f 176/2/3 174/2/3 175/2/3
f 182/2/3 178/2/3 177/2/3
f 182/4/3 179/4/3 178/4/3
f 183/4/3 179/4/3 182/4/3
f 184/2/3 182/2/3 177/2/3
f 185/4/3 179/4/3 183/4/3
f 186/2/3 184/2/3 177/2/3
f 187/4/3 185/4/3 184/4/3
f 187/2/3 184/2/3 186/2/3
f 188/4/3 179/4/3 185/4/3
f 188/4/3 185/4/3 187/4/3
f 189/2/3 181/2/3 180/2/3
f 190/2/3 181/2/3 189/2/3
f 193/2/3 192/2/3 191/2/3
f 194/2/3 192/2/3 193/2/3
f 197/2/3 196/2/3 195/2/3
f 198/2/3 196/2/3 197/2/3
f 201/4/3 200/4/3 199/4/3
f 202/4/3 200/4/3 201/4/3
f 205/4/3 204/4/3 203/4/3
f 206/4/3 204/4/3 205/4/3
f 209/3/3 208/3/3 207/3/3
f 210/3/3 208/3/3 209/3/3
f 213/4/3 212/4/3 211/4/3
f 214/4/3 212/4/3 213/4/3
f 217/3/3 216/3/3 215/3/3
f 218/3/3 216/3/3 217/3/3
f 220/3/3 216/3/3 218/3/3
f 221/3/3 220/3/3 219/3/3
f 222/3/3 216/3/3 220/3/3
f 222/3/3 220/3/3 221/3/3
f 225/4/3 224/4/3 223/4/3
f 226/4/3 224/4/3 225/4/3
f 229/4/3 228/4/3 227/4/3
f 230/4/3 228/4/3 229/4/3
f 233/4/3 232/4/3 231/4/3
f 234/4/3 232/4/3 233/4/3
f 237/4/3 236/4/3 235/4/3
f 238/4/3 236/4/3 237/4/3
f 239/4/3 237/4/3 235/4/3
f 240/4/3 236/4/3 238/4/3
f 241/4/3 239/4/3 235/4/3
f 241/4/3 240/4/3 239/4/3
f 242/4/3 236/4/3 240/4/3
f 242/4/3 240/4/3 241/4/3
f 243/4/3 241/4/3 235/4/3
f 244/4/3 236/4/3 242/4/3
f 245/4/3 243/4/3 235/4/3
f 245/4/3 244/4/3 243/4/3
f 246/4/3 236/4/3 244/4/3
f 246/4/3 244/4/3 245/4/3
f 247/4/3 245/4/3 235/4/3
f 248/4/3 236/4/3 246/4/3
f 249/4/3 247/4/3 235/4/3
f 249/4/3 248/4/3 247/4/3
f 250/4/3 236/4/3 248/4/3
f 250/4/3 248/4/3 249/4/3
f 253/4/3 252/4/3 251/4/3
f 254/4/3 252/4/3 253/4/3
f 255/4/3 253/4/3 251/4/3
f 256/4/3 252/4/3 254/4/3
f 257/4/3 255/4/3 251/4/3
f 257/4/3 256/4/3 255/4/3
f 258/4/3 252/4/3 256/4/3
f 258/4/3 256/4/3 257/4/3
f 259/4/4 260/4/4 261/4/4
f 261/4/4 260/4/4 262/4/4
f 262/4/4 260/4/4 264/4/4
f 263/4/4 264/4/4 265/4/4
f 264/4/4 260/4/4 266/4/4
f 265/4/4 264/4/4 266/4/4
f 267/4/4 268/4/4 269/4/4
f 269/4/4 268/4/4 270/4/4
f 271/4/4 272/4/4 273/4/4
f 273/4/4 272/4/4 274/4/4
f 275/3/4 276/3/4 277/3/4
f 277/3/4 276/3/4 278/3/4
f 279/4/4 280/4/4 281/4/4
f 281/4/4 280/4/4 282/4/4
f 283/4/4 284/4/4 285/4/4
f 285/4/4 284/4/4 286/4/4
f 287/4/4 288/4/4 289/4/4
f 289/4/4 288/4/4 290/4/4
f 291/3/4 292/3/4 293/3/4
f 293/3/4 292/3/4 294/3/4
f 294/3/4 292/3/4 296/3/4
f 295/3/4 296/3/4 297/3/4
f 296/3/4 292/3/4 298/3/4
f 297/3/4 296/3/4 298/3/4
f 299/4/4 300/4/4 301/4/4
f 301/4/4 300/4/4 302/4/4
f 303/4/4 304/4/4 305/4/4
f 305/4/4 304/4/4 306/4/4
f 307/2/4 308/2/4 309/2/4
f 309/2/4 308/2/4 310/2/4
f 311/2/4 312/2/4 313/2/4
f 313/2/4 312/2/4 314/2/4
f 316/4/4 317/4/4 320/4/4
f 320/4/4 317/4/4 321/4/4
f 316/4/4 320/4/4 322/4/4
f 321/4/4 317/4/4 323/4/4
f 316/4/4 322/4/4 324/4/4
f 322/4/4 323/4/4 324/4/4
f 323/4/4 317/4/4 325/4/4
f 324/4/4 323/4/4 325/4/4
f 316/4/4 324/4/4 326/4/4
f 325/4/4 317/4/4 327/4/4
f 316/4/4 326/4/4 328/4/4
f 326/4/4 327/4/4 328/4/4
f 327/4/4 317/4/4 329/4/4
f 328/4/4 327/4/4 329/4/4
f 316/4/4 328/4/4 330/4/4
f 329/4/4 317/4/4 331/4/4
f 316/4/4 330/4/4 332/4/4
f 330/4/4 331/4/4 332/4/4
f 331/4/4 317/4/4 333/4/4
f 332/4/4 331/4/4 333/4/4
f 316/4/4 332/4/4 334/4/4
f 333/4/4 317/4/4 335/4/4
f 315/2/4 316/2/4 336/2/4
f 334/4/4 335/4/4 337/4/4
f 336/2/4 316/2/4 337/2/4
f 316/4/4 334/4/4 337/4/4
f 335/4/4 317/4/4 338/4/4
f 337/4/4 335/4/4 338/4/4
f 318/2/4 319/2/4 339/2/4
f 339/2/4 319/2/4 340/2/4
f 341/2/4 342/2/4 343/2/4
f 343/2/4 342/2/4 344/2/4
f 347/2/5 346/2/5 345/2/5
f 348/2/5 346/2/5 347/2/5
f 351/4/5 350/4/5 349/4/5
f 352/4/5 350/4/5 351/4/5
f 359/4/5 354/4/5 353/4/5
f 360/4/5 354/4/5 359/4/5
f 361/4/5 358/4/5 357/4/5
f 362/4/5 358/4/5 361/4/5
f 363/3/5 356/3/5 355/3/5
f 364/3/5 356/3/5 363/3/5
f 367/4/5 366/4/5 365/4/5
f 368/4/5 366/4/5 367/4/5
f 373/3/5 372/3/5 371/3/5
f 374/3/5 372/3/5 373/3/5
f 377/4/5 370/4/5 369/4/5
f 378/4/5 370/4/5 377/4/5
f 379/4/5 376/4/5 375/4/5
f 380/4/5 376/4/5 379/4/5
f 383/4/5 382/4/5 381/4/5
f 384/4/5 382/4/5 383/4/5
f 393/4/5 386/4/5 385/4/5
f 394/4/5 386/4/5 393/4/5
f 395/4/5 388/4/5 387/4/5
f 396/4/5 388/4/5 395/4/5
f 397/4/5 390/4/5 389/4/5
f 398/4/5 390/4/5 397/4/5
f 399/4/5 392/4/5 391/4/5
f 400/4/5 392/4/5 399/4/5
f 403/2/5 402/2/5 401/2/5
f 404/2/5 402/2/5 403/2/5
f 405/2/5 403/2/5 401/2/5
f 406/2/5 402/2/5 404/2/5
f 407/2/5 405/2/5 401/2/5
f 407/2/5 406/2/5 405/2/5
f 408/2/5 402/2/5 406/2/5
f 408/2/5 406/2/5 407/2/5
f 413/4/5 410/4/5 409/4/5
f 414/4/5 410/4/5 413/4/5
f 417/4/5 416/4/5 415/4/5
f 418/4/5 416/4/5 417/4/5
f 419/4/5 412/4/5 411/4/5
f 420/4/5 412/4/5 419/4/5
f 421/2/6 422/2/6 424/2/6
f 424/2/6 422/2/6 425/2/6
f 423/2/6 424/2/6 429/2/6
f 424/2/6 425/2/6 429/2/6
f 425/2/6 426/2/6 429/2/6
f 427/2/6 428/2/6 430/2/6
f 423/2/6 429/2/6 431/2/6
f 429/2/6 430/2/6 431/2/6
f 430/2/6 428/2/6 432/2/6
f 431/2/6 430/2/6 432/2/6
f 423/2/6 431/2/6 433/2/6
f 433/2/6 431/2/6 434/2/6
f 434/2/6 431/2/6 435/2/6
f 435/2/6 431/2/6 436/2/6
f 434/2/6 435/2/6 438/2/6
f 438/2/6 435/2/6 439/2/6
f 437/2/6 438/2/6 441/2/6
f 439/2/6 440/2/6 441/2/6
f 438/2/6 439/2/6 441/2/6
f 441/2/6 440/2/6 442/2/6
f 432/2/6 428/2/6 443/2/6
f 443/2/6 428/2/6 444/2/6
f 445/4/6 446/4/6 449/4/6
f 449/4/6 446/4/6 450/4/6
f 447/4/6 448/4/6 451/4/6
f 451/4/6 448/4/6 452/4/6
f 453/4/6 454/4/6 455/4/6
f 455/4/6 454/4/6 456/4/6
f 457/4/6 458/4/6 461/4/6
f 461/4/6 458/4/6 462/4/6
f 459/4/6 460/4/6 463/4/6
f 463/4/6 460/4/6 464/4/6
f 465/4/6 466/4/6 467/4/6
f 467/4/6 466/4/6 468/4/6
f 469/4/6 470/4/6 477/4/6
f 477/4/6 470/4/6 478/4/6
f 471/4/6 472/4/6 479/4/6
f 479/4/6 472/4/6 480/4/6
f 473/4/6 474/4/6 481/4/6
f 481/4/6 474/4/6 482/4/6
f 475/4/6 476/4/6 483/4/6
f 483/4/6 476/4/6 484/4/6
f 485/2/6 486/2/6 487/2/6
f 487/2/6 486/2/6 488/2/6
f 485/2/6 487/2/6 489/2/6
f 488/2/6 486/2/6 490/2/6
f 485/2/6 489/2/6 491/2/6
f 489/2/6 490/2/6 491/2/6
f 490/2/6 486/2/6 492/2/6
f 491/2/6 490/2/6 492/2/6
f 493/2/6 494/2/6 495/2/6
f 495/2/6 494/2/6 496/2/6
f 493/2/6 495/2/6 497/2/6
f 496/2/6 494/2/6 498/2/6
f 493/2/6 497/2/6 499/2/6
f 497/2/6 498/2/6 499/2/6
f 498/2/6 494/2/6 500/2/6
f 499/2/6 498/2/6 500/2/6
f 501/2/6 502/2/6 503/2/6
f 503/2/6 502/2/6 504/2/6
f 501/2/6 503/2/6 505/2/6
f 504/2/6 502/2/6 506/2/6
f 501/2/6 505/2/6 507/2/6
f 505/2/6 506/2/6 507/2/6
f 506/2/6 502/2/6 508/2/6
f 507/2/6 506/2/6 508/2/6
f 509/2/6 510/2/6 511/2/6
f 511/2/6 510/2/6 512/2/6
